<svg xmlns="http://www.w3.org/2000/svg" id="clock" width="100%" height="100%" viewBox="-1200 -1200 2400 2400" preserveAspectRatio="xMidYMid meet">

	<style>
		svg#clock {
			display: block;
			background-color: #e6e6e6;
			font-size: 48px;
		}


		svg#clock .face   {
			fill: whitesmoke;
			stroke: silver;
			stroke-width: 10;
			filter: drop-shadow(5px 5px 10px gray);
		}


		svg#clock .sector.jan { fill: #E42D1A }
		svg#clock .sector.feb { fill: #983021 }
		svg#clock .sector.mar { fill: #89493B }
		svg#clock .sector.apr { fill: #7C5E57 }
		svg#clock .sector.may { fill: #6F6E6D }
		svg#clock .sector.jun { fill: #738C92 }
		svg#clock .sector.jul { fill: #7ABECF }
		svg#clock .sector.aug { fill: #5FB69C }
		svg#clock .sector.sep { fill: #2EA544 }
		svg#clock .sector.oct { fill: #AEC013 }
		svg#clock .sector.nov { fill: #F3C301 }
		svg#clock .sector.dec { fill: #F18E17 }


		svg#clock .tick {
			stroke: white
		}

		svg#clock .tick.day {
			stroke-linecap: round;
		}

		svg#clock .tick.day.first {
			stroke-width: 2;
		}

		svg#clock .tick.day.weekday {
			stroke-width: 2;
		}

		svg#clock .tick.day.weekend {
			stroke-width: 7;
		}


		svg#clock .label.month {
			fill: white;
			text-anchor: middle;
			dominant-baseline: middle;
		}

		svg#clock .label.year {
			fill: silver;
			text-anchor: middle;
			font-size: 5em;
			dominant-baseline: central;
		}

		svg#clock .needle {
			stroke: black;
			fill: black;
			stroke-width: 15;
			stroke-linejoin: round;
			filter: drop-shadow(5px 5px 10px gray);
		}

	</style>

	<desc>Created with Snap</desc><defs></defs><circle cx="0" cy="0" r="1180" class="face year"></circle><path d="
		M 6.858022075225178e-14 -1120
		A 1120 1120 0 0 1 569.7112649933756 -964.2764513041101
		L 467.97711053027285 -792.0842278569476
		A 920 920 0 0 0 5.633375276077825e-14 -920
		Z" class="sector month jan"></path><text x="0" y="-980" class="label month" transform="matrix(0.9646,0.2637,-0.2637,0.9646,0,0)">Janvier</text><path d="
		M 569.711457114357 -964.2763377956737
		A 1120 1120 0 0 1 951.7950248949402 -590.3272233136806
		L 781.8316275922723 -484.91164772195197
		A 920 920 0 0 0 467.9772683439361 -792.0841346178748
		Z" class="sector month feb"></path><text x="0" y="-980" class="label month" transform="matrix(0.7147,0.6995,-0.6995,0.7147,0,0)">Février</text><path d="
		M 951.7951425108313 -590.3270336794567
		A 1120 1120 0 0 1 1119.7407174162004 -24.098252224029164
		L 919.7870178775931 -19.79499289830967
		A 920 920 0 0 0 781.8317242053257 -484.9114919509823
		Z" class="sector month mar"></path><text x="0" y="-980" class="label month" transform="matrix(0.2844,0.9587,-0.9587,0.2844,0,0)">Mars</text><path d="
		M 1119.7407222174777 -24.09802912856896
		A 1120 1120 0 0 1 985.6137744343037 531.9450043428978
		L 809.6113147138923 436.95482499595175
		A 920 920 0 0 0 919.7870218214996 -19.794809641324502
		Z" class="sector month apr"></path><text x="0" y="980" class="label month" transform="matrix(0.2345,-0.9721,0.9721,0.2345,0,0)">Avril</text><path d="
		M 985.6136684503599 531.9452007150961
		A 1120 1120 0 0 1 577.9900690746306 959.3370002512692
		L 474.7775567398751 788.0268216349712
		A 920 920 0 0 0 809.6112276556528 436.9549863016861
		Z" class="sector month may"></path><text x="0" y="980" class="label month" transform="matrix(0.6902,-0.7236,0.7236,0.6902,0,0)">Mai</text><path d="
		M 577.989877937755 959.3371154091242
		A 1120 1120 0 0 1 28.9168761271209 1119.6266405704398
		L 23.75314824727788 919.6933118971469
		A 920 920 0 0 0 474.7773997345844 788.0269162289234
		Z" class="sector month jun"></path><text x="0" y="980" class="label month" transform="matrix(0.9599,-0.2802,0.2802,0.9599,0,0)">Juin</text><path d="
		M 28.916653054388732 1119.6266463317727
		A 1120 1120 0 0 1 -544.6252369741846 978.6640645547446
		L -447.37073037165163 803.902624455683
		A 920 920 0 0 0 23.752965008962175 919.6933166296703
		Z" class="sector month jul"></path><text x="0" y="980" class="label month" transform="matrix(0.9711,0.2387,-0.2387,0.9711,0,0)">Juillet</text><path d="
		M -544.6254319617326 978.6639560444106
		A 1120 1120 0 0 1 -966.719070735277 565.5565738957708
		L -794.0906652468346 464.56432855724034
		A 920 920 0 0 0 -447.37089053999466 803.9025353221945
		Z" class="sector month aug"></path><text x="0" y="980" class="label month" transform="matrix(0.7147,0.6995,-0.6995,0.7147,0,0)">Août</text><path d="
		M -966.7191834159009 565.5563812881027
		A 1120 1120 0 0 1 -1119.9066548123888 14.45975473253158
		L -919.9233235958908 11.877655673150942
		A 920 920 0 0 0 -794.0907578059187 464.5641703437986
		Z" class="sector month sep"></path><text x="0" y="980" class="label month" transform="matrix(0.2678,0.9635,-0.9635,0.2678,0,0)">Septembre</text><path d="
		M -1119.9066576933064 14.459531604009836
		A 1120 1120 0 0 1 -971.5512283157865 -557.2146900056446
		L -798.0599375451103 -457.7120667903509
		A 920 920 0 0 0 -919.9233259623588 11.87747238900808
		Z" class="sector month oct"></path><text x="0" y="-980" class="label month" transform="matrix(0.2512,-0.9679,0.9679,0.2512,0,0)">Octobre</text><path d="
		M -971.5511172971484 -557.2148835760424
		A 1120 1120 0 0 1 -569.7116492353159 -964.2762242871988
		L -467.97742615758096 -792.0840413787705
		A 920 920 0 0 0 -798.0598463512291 -457.71222579460624
		Z" class="sector month nov"></path><text x="0" y="-980" class="label month" transform="matrix(0.7025,-0.7117,0.7117,0.7025,0,0)">Novembre</text><path d="
		M -569.7114571143575 -964.2763377956734
		A 1120 1120 0 0 1 -0.00022314711961936393 -1119.9999999999777
		L -0.00018329941968733466 -919.9999999999817
		A 920 920 0 0 0 -467.9772683439365 -792.0841346178746
		Z" class="sector month dec"></path><text x="0" y="-980" class="label month" transform="matrix(0.9646,-0.2637,0.2637,0.9646,0,0)">Décembre</text><line x1="5.633375276077825e-14" x2="6.858022075225178e-14" y1="-920" y2="-1120" class="tick day first"></line><line x1="18.59042464830143" x2="19.278958894534817" y1="-1079.8399863458455" y2="-1119.8340599142102" class="tick day weekday"></line><line x1="37.175340552565515" x2="38.552205017475345" y1="-1079.3599927988812" y2="-1119.3362888284694" class="tick day weekday"></line><line x1="54.974945592765266" x2="57.81402729004422" y1="-1063.580159347227" y2="-1118.5068342430932" class="tick day weekend"></line><line x1="73.27458454447081" x2="77.05871801859841" y1="-1062.4762751515138" y2="-1117.345941943376" class="tick day weekend"></line><line x1="92.84198263644224" x2="96.2805745859401" y1="-1076.0020289293764" y2="-1115.8539559267608" class="tick day weekday"></line><line x1="111.3498332432296" x2="115.473901141127" y1="-1074.2444855044428" y2="-1114.0313183009036" class="tick day weekday"></line><line x1="129.824688491301" x2="134.6330102872751" y1="-1072.1686202543594" y2="-1111.878569152669" class="tick day weekday"></line><line x1="148.26107388232597" x2="153.75222476685656" y1="-1069.7750483028008" y2="-1109.3963463880896" class="tick day weekday"></line><line x1="166.6535263174238" x2="172.82587914399502" y1="-1067.0644789167934" y2="-1106.5853855433413" class="tick day weekday"></line><line x1="182.42719855327366" x2="191.84832148325492" y1="-1049.2594136952046" y2="-1103.4465195667879" class="tick day weekend"></line><line x1="200.46144598305506" x2="210.8139150244335" y1="-1045.9637702494206" y2="-1099.9806785721607" class="tick day weekend"></line><line x1="221.51285985810884" x2="229.7170398528536" y1="-1057.0392863642683" y2="-1096.188889562945" class="tick day weekday"></line><line x1="239.67523404449872" x2="248.55209456466534" y1="-1053.0696948377704" y2="-1092.072276128058" class="tick day weekday"></line><line x1="257.7665872864263" x2="267.3134979266643" y1="-1048.7880560335864" y2="-1087.6320581089044" class="tick day weekday"></line><line x1="275.781558725482" x2="285.9956905301295" y1="-1044.1956386936997" y2="-1082.8695512379109" class="tick day weekday"></line><line x1="293.7148101368339" x2="304.59313643819814" y1="-1039.2938036504804" y2="-1077.7861667486466" class="tick day weekday"></line><line x1="307.2337910178486" x2="323.10032482628213" y1="-1019.7217255981168" y2="-1072.383410957644" class="tick day weekend"></line><line x1="324.7411042589478" x2="341.5117716150437" y1="-1014.2821181528733" y2="-1066.662884818045" class="tick day weekend"></line><line x1="346.9712346277537" x2="359.8220210954483" y1="-1022.7467733221612" y2="-1060.6262834452043" class="tick day weekday"></line><line x1="364.52473156164234" x2="378.0256475454069" y1="-1016.6227029138748" y2="-1054.2753956143888" class="tick day weekday"></line><line x1="381.97021195048126" x2="396.1172568375361" y1="-1010.1973852582001" y2="-1047.612103230726" class="tick day weekday"></line><line x1="399.30250632192707" x2="414.091488037554" y1="-1003.4727243154282" y2="-1040.6383807715551" class="tick day weekday"></line><line x1="416.5164787430959" x2="431.9430149928402" y1="-996.4507127477265" y2="-1033.356294701346" class="tick day weekday"></line><line x1="427.58470850436134" x2="449.66654791068987" y1="-975.3954670046609" y2="-1025.7680028593616" class="tick day weekend"></line><line x1="444.3111867821174" x2="467.2568349257948" y1="-967.8907837665706" y2="-1017.8757538202433" class="tick day weekend"></line><line x1="467.39763995446555" x2="484.7086636564828" y1="-973.6218188624348" y2="-1009.6818862277102" class="tick day weekday"></line><line x1="484.0876890796435" x2="502.0168627492599" y1="-965.4320842407975" y2="-1001.1888281015678" class="tick day weekday"></line><line x1="500.63429257507914" x2="519.1763034111932" y1="-956.9562712568688" y2="-992.3990961182344" class="tick day weekday"></line><line x1="517.0325473250516" x2="536.1819009296831" y1="-948.1968914769592" y2="-983.3152948649947" class="tick day weekday"></line><line x1="533.2775941727755" x2="553.0286161791745" y1="-939.1565404943399" y2="-973.9401160682044" class="tick day weekday"></line><line x1="467.9772683439361" x2="569.711457114357" y1="-792.0841346178748" y2="-964.2763377956737" class="tick day first"></line><line x1="541.7345552024913" x2="569.711457114357" y1="-916.9234819217791" y2="-964.2763377956737" class="tick day weekend"></line><line x1="557.437621844311" x2="586.2254802494163" y1="-907.4625599728944" y2="-954.3268236334665" class="tick day weekend"></line><line x1="581.0455852613637" x2="602.5657921228957" y1="-910.3768603431654" y2="-944.0945218373566" class="tick day weekday"></line><line x1="596.6301382210294" x2="618.7275507477341" y1="-900.2402335856555" y2="-933.5824644591983" class="tick day weekday"></line><line x1="612.037896794407" x2="634.7059670460516" y1="-889.8368462181586" y2="-922.7937664484608" class="tick day weekday"></line><line x1="627.264295330105" x2="650.4963062682571" y1="-879.1697809888752" y2="-911.7316247292039" class="tick day weekday"></line><line x1="642.3048219176244" x2="666.0938893960549" y1="-868.242198779447" y2="-900.3993172527599" class="tick day weekday"></line><line x1="648.0278666726095" x2="681.4940945289414" y1="-845.1537635340369" y2="-888.8002020264049" class="tick day weekend"></line><line x1="662.4797870895238" x2="696.6923582537715" y1="-833.8738104160719" y2="-876.9377161183104" class="tick day weekend"></line><line x1="686.2668849613916" x2="711.6841769969988" y1="-833.9291112590973" y2="-864.815374639064" class="tick day weekday"></line><line x1="700.5199259177799" x2="726.4651083591791" y1="-821.9925993536366" y2="-852.4367697000675" class="tick day weekday"></line><line x1="714.5653877016606" x2="741.0307724313517" y1="-809.812513300934" y2="-839.8055693491168" class="tick day weekday"></line><line x1="728.3991083395812" x2="755.3768530928991" y1="-797.392462323355" y2="-826.9255164834792" class="tick day weekday"></line><line x1="742.0169886015605" x2="769.499099290507" y1="-784.7361267500507" y2="-813.8004277407933" class="tick day weekday"></line><line x1="744.9231183100042" x2="783.3933262978447" y1="-761.1271561357534" y2="-800.4341923681162" class="tick day weekend"></line><line x1="757.9143027300901" x2="797.0554169555877" y1="-748.1917599901521" y2="-786.8307710694557" class="tick day weekend"></line><line x1="781.5355613595854" x2="810.4813228914219" y1="-745.3872593024097" y2="-772.9941948321285" class="tick day weekday"></line><line x1="794.2503848011045" x2="823.6670657196638" y1="-731.823972170424" y2="-758.9285637322917" class="tick day weekday"></line><line x1="806.7298547122798" x2="836.608738220142" y1="-718.0438298014294" y2="-744.6380457200008" class="tick day weekday"></line><line x1="818.9702731568475" x2="849.3025054959901" y1="-704.0509155490095" y2="-730.126875384158" class="tick day weekday"></line><line x1="830.9680130346529" x2="861.7446061100105" y1="-689.8493758156492" y2="-715.3993526977104" class="tick day weekday"></line><line x1="831.015081390376" x2="873.9313531992686" y1="-666.0622602292873" y2="-700.4598417434759" class="tick day weekend"></line><line x1="842.3571244459677" x2="885.8591355675904" y1="-651.6590173511914" y2="-685.3127694209713" class="tick day weekend"></line><line x1="865.4699752286508" x2="897.5244187556378" y1="-646.0353875583895" y2="-669.9626241346263" class="tick day weekday"></line><line x1="876.4621837279499" x2="908.9237460882443" y1="-631.042027518638" y2="-654.4139544637727" class="tick day weekday"></line><line x1="887.1946775666074" x2="920.053739698704" y1="-615.86167610713" y2="-638.6713678148016" class="tick day weekday"></line><line x1="897.6642764750726" x2="930.9111015297049" y1="-600.498831589608" y2="-622.7395290558899" class="tick day weekday"></line><line x1="907.8678780852365" x2="941.4926143106156" y1="-584.9580463084598" y2="-606.623159134699" class="tick day weekday"></line><line x1="781.8317242053257" x2="951.7951425108313" y1="-484.9114919509823" y2="-590.3270336794567" class="tick day first"></line><line x1="905.0552024768173" x2="951.7951425108313" y1="-561.3377597041263" y2="-590.3270336794567" class="tick day weekend"></line><line x1="914.5836155637302" x2="961.8156332688993" y1="-545.675553916771" y2="-573.8559815838344" class="tick day weekend"></line><line x1="936.8528631079647" x2="971.5511172971486" y1="-537.3143520197549" y2="-557.2148835760422" class="tick day weekday"></line><line x1="945.9630415557824" x2="980.9987097615522" y1="-521.1083611021157" y2="-540.4086707725645" class="tick day weekday"></line><line x1="954.7929107388328" x2="990.1556111365674" y1="-504.74795453064235" y2="-523.4423232169624" class="tick day weekday"></line><line x1="963.3398541763124" x2="999.0191080346943" y1="-488.2379802468886" y2="-506.32086840418077" class="tick day weekday"></line><line x1="971.6013392244229" x2="1007.5865740105125" y1="-471.58333051254897" y2="-489.04937979079153" class="tick day weekday"></line><line x1="965.9697106348073" x2="1015.8554703389523" y1="-448.4724273978353" y2="-471.63297529162026" class="tick day weekend"></line><line x1="973.5463074173805" x2="1023.8233467675739" y1="-431.778400703397" y2="-454.07681576319686" class="tick day weekend"></line><line x1="994.6489907339654" x2="1031.4878422426307" y1="-420.80088549325086" y2="-436.3861034744824" class="tick day weekday"></line><line x1="1001.7450182655324" x2="1038.8466856087002" y1="-403.6172919737065" y2="-418.56608056532525" class="tick day weekday"></line><line x1="1008.5442071287592" x2="1045.8976962816762" y1="-386.31409793977554" y2="-400.6220274931006" class="tick day weekday"></line><line x1="1015.0445425772472" x2="1052.638784894923" y1="-368.8964307012839" y2="-382.55926146799817" class="tick day weekday"></line><line x1="1021.244098421314" x2="1059.0679539183998" y1="-351.3694514889386" y2="-364.3831348774178" class="tick day weekday"></line><line x1="1012.8751898543386" x2="1065.183298250572" y1="-329.1030990093189" y2="-346.099033699941" class="tick day weekend"></line><line x1="1018.3900903203795" x2="1070.9830057829342" y1="-311.6193574495161" y2="-327.7123759093502" class="tick day weekend"></line><line x1="1038.0201665820848" x2="1076.465357936977" y1="-298.1847309452664" y2="-309.22860986916515" class="tick day weekday"></line><line x1="1042.9991326672432" x2="1081.6287301734374" y1="-280.2727408353837" y2="-290.65321271817567" class="tick day weekday"></line><line x1="1047.6690355996275" x2="1086.471592473688" y1="-262.2776998636105" y2="-271.99168874744794" class="tick day weekday"></line><line x1="1052.0284915862142" x2="1090.9925097931111" y1="-244.2049403489512" y2="-253.24956776928272" class="tick day weekday"></line><line x1="1056.0762088261095" x2="1095.1901424863356" y1="-226.0598176400924" y2="-234.43240347861433" class="tick day weekday"></line><line x1="1045.091390839264" x2="1099.0632467042024" y1="-204.96093479893395" y2="-215.5457718073296" class="tick day weekend"></line><line x1="1048.4646148409781" x2="1102.6106747623433" y1="-186.9410372988209" y2="-196.59526927199943" class="tick day weekend"></line><line x1="1066.3373977855053" x2="1105.8313754812648" y1="-171.24413591138534" y2="-177.58651131551073" class="tick day weekday"></line><line x1="1069.1270946943412" x2="1108.7243944978354" y1="-152.86351883440653" y2="-158.52513064308826" class="tick day weekday"></line><line x1="1071.599986171367" x2="1111.288874548084" y1="-134.43760499773234" y2="-139.4167755532039" class="tick day weekday"></line><line x1="1073.755339445468" x2="1113.5240557212262" y1="-115.97185439729617" y2="-120.2671082638627" class="tick day weekday"></line><line x1="1075.5925158389534" x2="1115.4292756848406" y1="-97.47173883352428" y2="-101.08180323476591" class="tick day weekday"></line><line x1="1062.1510963601856" x2="1117.0039698811343" y1="-77.84631334145264" y2="-81.8665454858469" class="tick day weekend"></line><line x1="1063.333723530676" x2="1118.247671694232" y1="-59.55159445714231" y2="-62.627028912675485" class="tick day weekend"></line><line x1="1079.1900121388583" x2="1119.1600125884454" y1="-41.82006336354846" y2="-43.368954599235444" class="tick day weekday"></line><line x1="919.7870218214996" x2="1119.7407222174777" y1="-19.794809641324502" y2="-24.09802912856896" class="tick day first"></line><line x1="1079.9899989150854" x2="1119.989628504533" y1="-4.647821359943651" y2="-4.819962891793415" class="tick day weekday"></line><line x1="1079.9099913471168" x2="1119.9066576933064" y1="13.943119761009916" y2="14.459531604010284" class="tick day weekday"></line><line x1="1079.5099831423458" x2="1119.4918343698403" y1="32.52992923466094" y2="33.73474142853727" class="tick day weekday"></line><line x1="1063.8068970980607" x2="1118.7452814552378" y1="50.397278563389875" y2="52.999954921123624" class="tick day weekend"></line><line x1="1062.7817763216426" x2="1117.6672201692393" y1="68.70149866352176" y2="72.24946338323414" class="tick day weekend"></line><line x1="1076.3916138945037" x2="1116.2579699646706" y1="88.21050695685622" y2="91.47756277007312" class="tick day weekday"></line><line x1="1074.7137359887533" x2="1114.5179484327812" y1="106.72574983150129" y2="110.67855538081616" class="tick day weekday"></line><line x1="1072.7173972088074" x2="1112.4476711795041" y1="125.20936756314065" y2="129.84675154696066" class="tick day weekday"></line><line x1="1070.4031891129312" x2="1110.0477516726692" y1="143.65588305693154" y2="148.97647131829936" class="tick day weekday"></line><line x1="1067.7717974509278" x2="1107.3189010602214" y1="162.05983021222477" y2="168.06204614601086" class="tick day weekday"></line><line x1="1050.0347797114794" x2="1104.26192795949" y1="177.90998115975677" y2="187.0978205623733" class="tick day weekend"></line><line x1="1046.816777858681" x2="1100.8777382175801" y1="195.9582445154294" y2="206.07815385660183" class="tick day weekend"></line><line x1="1057.9827869771293" x2="1097.1673346429488" y1="216.96179954108604" y2="224.99742174631146" class="tick day weekday"></line><line x1="1054.0913946829578" x2="1093.1318167082525" y1="235.14108882825428" y2="243.85001804411556" class="tick day weekday"></line><line x1="1049.8876523593863" x2="1088.7723802245487" y1="253.25070073604243" y2="262.63035631885884" class="tick day weekday"></line><line x1="1045.3728056659895" x2="1084.090316986952" y1="271.28526899560467" y2="281.3328715509974" class="tick day weekday"></line><line x1="1040.5481924492808" x2="1079.0870143918467" y1="289.2394495751483" y2="299.95202178163527" class="tick day weekday"></line><line x1="1021.0344750914707" x2="1073.763955025772" y1="302.8425344542688" y2="318.482289754724" class="tick day weekend"></line><line x1="1015.6702614114246" x2="1068.122716226099" y1="320.37309513198596" y2="336.91818455194766" class="tick day weekend"></line><line x1="1024.2305064131453" x2="1062.1649696136321" y1="342.56659167623434" y2="355.2542432197986" class="tick day weekday"></line><line x1="1018.1820348616544" x2="1055.8924805972713" y1="360.146281231642" y2="373.4850323883694" class="tick day weekday"></line><line x1="1011.831853999066" x2="1049.307107850883" y1="377.6192516713269" y2="391.605149881376" class="tick day weekday"></line><line x1="1005.1818455210177" x2="1042.4108027625368" y1="394.9803253770507" y2="409.60922631694143" class="tick day weekday"></line><line x1="998.2339799685408" x2="1035.2056088562645" y1="412.2243578879917" y2="427.49192669865806" class="tick day weekday"></line><line x1="977.2265617532544" x2="1027.693661186521" y1="423.3830972109219" y2="445.24795199646246" class="tick day weekend"></line><line x1="969.7939310503402" x2="1019.8771857055222" y1="440.1417172887931" y2="462.87204071685284" class="tick day weekend"></line><line x1="975.6242665106591" x2="1011.7584986036466" y1="463.20329294548236" y2="480.3589704619817" class="tick day weekday"></line><line x1="967.5064339937015" x2="1003.3400056230979" y1="479.9284323529824" y2="497.70355947716695" class="tick day weekday"></line><line x1="959.1019084398525" x2="994.6242013450322" y1="496.51135860827253" y2="514.9006681863567" class="tick day weekday"></line><line x1="809.6112276556528" x2="985.6136684503599" y1="436.9549863016861" y2="531.9452007150961" class="tick day first"></line><line x1="941.4428242060676" x2="976.3110769544404" y1="529.2309597433841" y2="548.8321064005464" class="tick day weekday"></line><line x1="919.2463663731555" x2="966.7191834159007" y1="537.7835232784194" y2="565.556381288103" class="tick day weekend"></line><line x1="909.8531107835657" x2="956.8408301198062" y1="553.5271599456241" y2="582.1130696141774" class="tick day weekend"></line><line x1="912.8689819413082" x2="946.6789442354308" y1="577.1223629434571" y2="598.4972652746964" class="tick day weekday"></line><line x1="902.7995177721278" x2="936.2365369488733" y1="592.7503949474967" y2="614.7041132788855" class="tick day weekday"></line><line x1="892.4625346218222" x2="925.5167025707786" y1="608.2027822169123" y2="630.728811187909" class="tick day weekday"></line><line x1="881.8610955615892" x2="914.5226176194259" y1="623.4749458758655" y2="646.5666105379346" class="tick day weekday"></line><line x1="870.9983420266202" x2="903.257539879458" y1="638.5623604526645" y2="662.2128182472077" class="tick day weekday"></line><line x1="847.9347499284858" x2="891.7248074365295" y1="644.3847141760242" y2="677.662798006711" class="tick day weekend"></line><line x1="836.7170956588309" x2="879.9278376881601" y1="658.885044474566" y2="692.9119716540038" class="tick day weekend"></line><line x1="836.8747646764039" x2="867.8701263310854" y1="682.6716840823367" y2="707.9558205298307" class="tick day weekday"></line><line x1="824.999701813786" x2="855.5552463254078" y1="696.9759622879143" y2="722.7898868170962" class="tick day weekday"></line><line x1="812.8801737345691" x2="842.9868468358494" y1="711.0737114738928" y2="737.4097748618148" class="tick day weekday"></line><line x1="800.5197717164834" x2="830.1686521504272" y1="724.9607541729341" y2="751.8111524756354" class="tick day weekday"></line><line x1="787.9221584134066" x2="817.1044605768661" y1="738.6329753545793" y2="765.9897522195638" class="tick day weekday"></line><line x1="764.3259130648994" x2="803.7981433170773" y1="741.640680260669" y2="779.9413726684969" class="tick day weekend"></line><line x1="751.4465447641444" x2="790.2536433200391" y1="754.6874123516495" y2="793.6618796561949" class="tick day weekend"></line><line x1="748.7437250379357" x2="776.4749741134149" y1="778.32052151817" y2="807.1472075003245" class="tick day weekday"></line><line x1="735.2352822351776" x2="762.4662186142582" y1="791.0935973426651" y2="820.3933602072083" class="tick day weekday"></line><line x1="721.5089733506163" x2="748.2315279191577" y1="803.6322550610695" y2="833.3964126559239" class="tick day weekday"></line><line x1="707.568865785812" x2="733.7751200741753" y1="815.9327791984948" y2="846.152511761402" class="tick day weekday"></line><line x1="693.4190902954887" x2="719.1012788249512" y1="827.9915248441719" y2="858.6578776161782" class="tick day weekday"></line><line x1="669.6323975445638" x2="704.2143523473346" y1="828.1409615269126" y2="870.9088046104622" class="tick day weekend"></line><line x1="655.278098960944" x2="689.1187519589271" y1="839.5448844595095" y2="882.9016625301883" class="tick day weekend"></line><line x1="649.7539882829165" x2="673.8189508119134" y1="862.6817227172739" y2="894.6328976327286" class="tick day weekday"></line><line x1="634.8080724758709" x2="658.3194825675698" y1="873.7383539249432" y2="906.0990336999412" class="tick day weekday"></line><line x1="619.6740493366708" x2="642.6249400528437" y1="884.5360776015262" y2="917.2966730682494" class="tick day weekday"></line><line x1="604.3564034029907" x2="626.7399738993978" y1="895.0716941484641" y2="928.2224976354441" class="tick day weekday"></line><line x1="588.8596736239032" x2="610.6692911655292" y1="905.3420816351962" y2="938.8732698439072" class="tick day weekday"></line><line x1="565.2275012924591" x2="594.4176539413655" y1="902.631082880865" y2="949.2458336399707" class="tick day weekend"></line><line x1="474.7773997345844" x2="577.989877937755" y1="788.0269162289234" y2="959.3371154091242" class="tick day first"></line><line x1="549.606446431883" x2="577.989877937755" y1="912.2268106345689" y2="959.3371154091242" class="tick day weekend"></line><line x1="541.3411585214376" x2="561.3908310592686" y1="934.5318347122627" y2="969.1441248867909" class="tick day weekday"></line><line x1="525.1745236773853" x2="544.6254319617329" y1="943.7116718999673" y2="978.6639560444105" class="tick day weekday"></line><line x1="508.8522682877731" x2="527.6986485947276" y1="952.611866952322" y2="987.8937879505561" class="tick day weekday"></line><line x1="492.3792289891357" x2="510.61549672947405" y1="961.2297825494506" y2="996.8308856068378" class="tick day weekday"></line><line x1="475.7602870985343" x2="493.3810384725541" y1="969.5628650169725" y2="1005.4726007583419" class="tick day weekday"></line><line x1="452.6253620675749" x2="476.00038076590033" y1="964.0307472343384" y2="1013.8163726783653" class="tick day weekend"></line><line x1="435.9640961386369" x2="458.47867387349606" y1="971.6791172388246" y2="1021.8597289272146" class="tick day weekend"></line><line x1="425.0774987889842" x2="440.82110985524287" y1="992.8288472960993" y2="1029.6002860848437" class="tick day weekday"></line><line x1="407.92460242028227" x2="423.03292102844085" y1="999.9987593693578" y2="1037.0357504571118" class="tick day weekday"></line><line x1="390.65082918814875" x2="405.1193784173395" y1="1006.8723502284745" y2="1044.163918755455" class="tick day weekday"></line><line x1="373.2612976843919" x2="387.08579019122124" y1="1013.4475830801333" y2="1050.982678749768" class="tick day weekday"></line><line x1="355.7611608024926" x2="368.9375000914738" y1="1019.7225095409354" y2="1057.4900098943033" class="tick day weekday"></line><line x1="333.45899859665536" x2="350.6798858481258" y1="1011.4495025728747" y2="1063.6839839264035" class="tick day weekend"></line><line x1="315.9991525262673" x2="332.31835758630933" y1="1017.0395939208468" y2="1069.562765437886" class="tick day weekend"></line><line x1="302.6491292151533" x2="313.8583562231219" y1="1036.7273048325242" y2="1075.1246124189138" class="tick day weekday"></line><line x1="284.7587321462478" x2="295.3053518553681" y1="1041.783309746543" y2="1080.3678767741928" class="tick day weekday"></line><line x1="266.7839549194105" x2="276.664842138648" y1="1046.5306117823586" y2="1085.291004811335" class="tick day weekday"></line><line x1="248.73012384906136" x2="257.9423506582859" y1="1050.9678042119228" y2="1089.8925377012533" class="tick day weekday"></line><line x1="230.60258867497998" x2="239.14342529257183" y1="1055.093572199356" y2="1094.1711119104434" class="tick day weekday"></line><line x1="209.45662763015864" x2="220.27363656880533" y1="1044.1996557851382" y2="1098.125459605028" class="tick day weekend"></line><line x1="191.45141379772366" x2="201.33857601262957" y1="1047.6503978688945" y2="1101.754409026443" class="tick day weekend"></line><line x1="175.8315739735982" x2="182.34385449113887" y1="1065.5905675229897" y2="1105.0568848386558" class="tick day weekday"></line><line x1="157.46313267346483" x2="163.2951005502598" y1="1068.4593402879957" y2="1108.0319084468103" class="tick day weekday"></line><line x1="139.04803164878754" x2="144.19795874689078" y1="1071.0115054912333" y2="1110.6785982872047" class="tick day weekday"></line><line x1="120.59172769142995" x2="125.05808797629773" y1="1073.2463068710724" y2="1112.9961700885194" class="tick day weekday"></line><line x1="102.09968980257523" x2="105.8811597952632" y1="1075.1630822076334" y2="1114.9839371042124" class="tick day weekday"></line><line x1="82.41660038363828" x2="86.67285674147875" y1="1061.8062459701412" y2="1116.6413103160169" class="tick day weekend"></line><line x1="64.12714039456974" x2="67.43887064968837" y1="1063.0675942125295" y2="1117.9677986084816" class="tick day weekend"></line><line x1="46.46401164489321" x2="48.18490096507444" y1="1079.0000443104084" y2="1118.9630089144975" class="tick day weekday"></line><line x1="23.752965008962175" x2="28.916653054388732" y1="919.6933166296703" y2="1119.6266463317727" class="tick day first"></line><line x1="9.295556639783488" x2="9.639836515331025" y1="1079.9599958455667" y2="1119.9585142102173" class="tick day weekday"></line><line x1="-9.295556639783834" x2="-9.639836515331384" y1="1079.9599958455667" y2="1119.9585142102173" class="tick day weekday"></line><line x1="-27.883915445303767" x2="-28.916653054389094" y1="1079.639980391352" y2="1119.6266463317727" class="tick day weekday"></line><line x1="-45.81867814982512" x2="-48.1849009650743" y1="1064.013932583875" y2="1118.9630089144975" class="tick day weekend"></line><line x1="-64.12714039456961" x2="-67.43887064968823" y1="1063.0675942125295" y2="1117.9677986084816" class="tick day weekend"></line><line x1="-83.57739757214009" x2="-86.67285674147861" y1="1076.7612635190162" y2="1116.6413103160169" class="tick day weekday"></line><line x1="-102.09968980257509" x2="-105.88115979526306" y1="1075.1630822076334" y2="1114.9839371042124" class="tick day weekday"></line><line x1="-120.59172769142981" x2="-125.05808797629759" y1="1073.2463068710724" y2="1112.9961700885194" class="tick day weekday"></line><line x1="-139.04803164878695" x2="-144.19795874689015" y1="1071.0115054912333" y2="1110.678598287205" class="tick day weekday"></line><line x1="-157.4631326734642" x2="-163.29510055025915" y1="1068.4593402879957" y2="1108.0319084468103" class="tick day weekday"></line><line x1="-173.38946877951986" x2="-182.34385449113825" y1="1050.790698529615" y2="1105.056884838656" class="tick day weekend"></line><line x1="-191.45141379772397" x2="-201.33857601262991" y1="1047.6503978688943" y2="1101.7544090264428" class="tick day weekend"></line><line x1="-212.40672097706263" x2="-220.27363656880567" y1="1058.9066931905625" y2="1098.1254596050278" class="tick day weekday"></line><line x1="-230.60258867497987" x2="-239.14342529257172" y1="1055.0935721993562" y2="1094.1711119104434" class="tick day weekday"></line><line x1="-248.73012384906121" x2="-257.9423506582857" y1="1050.9678042119228" y2="1089.8925377012533" class="tick day weekday"></line><line x1="-266.7839549194104" x2="-276.6648421386478" y1="1046.5306117823586" y2="1085.291004811335" class="tick day weekday"></line><line x1="-284.75873214624767" x2="-295.305351855368" y1="1041.783309746543" y2="1080.3678767741928" class="tick day weekday"></line><line x1="-298.44566908716496" x2="-313.8583562231218" y1="1022.3283144876281" y2="1075.124612418914" class="tick day weekend"></line><line x1="-315.99915252626676" x2="-332.3183575863087" y1="1017.0395939208469" y2="1069.562765437886" class="tick day weekend"></line><line x1="-338.15560421069216" x2="-350.6798858481252" y1="1025.6952702147464" y2="1063.6839839264037" class="tick day weekday"></line><line x1="-355.7611608024922" x2="-368.9375000914734" y1="1019.7225095409356" y2="1057.4900098943035" class="tick day weekday"></line><line x1="-373.2612976843922" x2="-387.0857901912216" y1="1013.4475830801332" y2="1050.9826787497677" class="tick day weekday"></line><line x1="-390.65082918814915" x2="-405.1193784173398" y1="1006.8723502284744" y2="1044.163918755455" class="tick day weekday"></line><line x1="-407.92460242028216" x2="-423.03292102844074" y1="999.9987593693578" y2="1037.0357504571118" class="tick day weekday"></line><line x1="-419.1736446391371" x2="-440.82110985524275" y1="979.0395577503201" y2="1029.6002860848437" class="tick day weekend"></line><line x1="-435.96409613863676" x2="-458.47867387349595" y1="971.6791172388246" y2="1021.8597289272146" class="tick day weekend"></line><line x1="-459.0003671671183" x2="-476.0003807659005" y1="977.6086450827092" y2="1013.816372678365" class="tick day weekday"></line><line x1="-475.76028709853443" x2="-493.3810384725542" y1="969.5628650169725" y2="1005.4726007583419" class="tick day weekday"></line><line x1="-492.37922898913536" x2="-510.61549672947365" y1="961.2297825494509" y2="996.830885606838" class="tick day weekday"></line><line x1="-508.8522682877727" x2="-527.6986485947273" y1="952.6118669523221" y2="987.8937879505562" class="tick day weekday"></line><line x1="-447.37089053999466" x2="-544.6254319617326" y1="803.9025353221945" y2="978.6639560444106" class="tick day first"></line><line x1="-533.822531319751" x2="-561.3908310592686" y1="921.5522258968145" y2="969.1441248867908" class="tick day weekend"></line><line x1="-549.6064464318831" x2="-577.9898779377551" y1="912.2268106345689" y2="959.3371154091242" class="tick day weekend"></line><line x1="-573.1884520148883" x2="-594.4176539413656" y1="915.3441967242575" y2="949.2458336399707" class="tick day weekday"></line><line x1="-588.8596736239033" x2="-610.6692911655293" y1="905.3420816351961" y2="938.8732698439071" class="tick day weekday"></line><line x1="-604.3564034029908" x2="-626.7399738993979" y1="895.071694148464" y2="928.222497635444" class="tick day weekday"></line><line x1="-619.6740493366708" x2="-642.6249400528437" y1="884.5360776015262" y2="917.2966730682494" class="tick day weekday"></line><line x1="-634.8080724758709" x2="-658.3194825675698" y1="873.7383539249432" y2="906.0990336999412" class="tick day weekday"></line><line x1="-640.7296273345423" x2="-673.818950811913" y1="850.7000321239788" y2="894.6328976327288" class="tick day weekend"></line><line x1="-655.2780989609438" x2="-689.1187519589269" y1="839.5448844595097" y2="882.9016625301887" class="tick day weekend"></line><line x1="-679.0638397635014" x2="-704.2143523473347" y1="839.804918731517" y2="870.908804610462" class="tick day weekday"></line><line x1="-693.4190902954887" x2="-719.1012788249512" y1="827.9915248441719" y2="858.6578776161782" class="tick day weekday"></line><line x1="-707.568865785812" x2="-733.7751200741753" y1="815.9327791984948" y2="846.152511761402" class="tick day weekday"></line><line x1="-721.5089733506164" x2="-748.2315279191578" y1="803.6322550610693" y2="833.3964126559238" class="tick day weekday"></line><line x1="-735.2352822351777" x2="-762.4662186142583" y1="791.093597342665" y2="820.3933602072082" class="tick day weekday"></line><line x1="-738.344506634631" x2="-776.4749741134148" y1="767.510514274862" y2="807.1472075003244" class="tick day weekend"></line><line x1="-751.4465447641444" x2="-790.2536433200391" y1="754.6874123516495" y2="793.6618796561949" class="tick day weekend"></line><line x1="-775.0910667700388" x2="-803.7981433170773" y1="752.0863236446221" y2="779.9413726684969" class="tick day weekday"></line><line x1="-787.9221584134064" x2="-817.1044605768659" y1="738.6329753545796" y2="765.989752219564" class="tick day weekday"></line><line x1="-800.5197717164832" x2="-830.168652150427" y1="724.9607541729343" y2="751.8111524756356" class="tick day weekday"></line><line x1="-812.880173734569" x2="-842.9868468358493" y1="711.0737114738928" y2="737.4097748618148" class="tick day weekday"></line><line x1="-824.999701813786" x2="-855.5552463254078" y1="696.9759622879143" y2="722.7898868170962" class="tick day weekday"></line><line x1="-825.2515040558986" x2="-867.8701263310859" y1="673.1901329145261" y2="707.9558205298302" class="tick day weekend"></line><line x1="-836.717095658831" x2="-879.9278376881603" y1="658.8850444745659" y2="692.9119716540037" class="tick day weekend"></line><line x1="-859.877492885225" x2="-891.7248074365295" y1="653.4605552207569" y2="677.6627980067108" class="tick day weekday"></line><line x1="-870.9983420266202" x2="-903.257539879458" y1="638.5623604526645" y2="662.2128182472077" class="tick day weekday"></line><line x1="-881.8610955615892" x2="-914.5226176194259" y1="623.4749458758655" y2="646.5666105379346" class="tick day weekday"></line><line x1="-892.4625346218222" x2="-925.5167025707786" y1="608.2027822169123" y2="630.728811187909" class="tick day weekday"></line><line x1="-902.7995177721277" x2="-936.2365369488732" y1="592.7503949474969" y2="614.7041132788858" class="tick day weekday"></line><line x1="-900.190246081012" x2="-946.6789442354304" y1="569.1067745692428" y2="598.4972652746967" class="tick day weekend"></line><line x1="-909.8531107835657" x2="-956.8408301198062" y1="553.5271599456241" y2="582.1130696141774" class="tick day weekend"></line><line x1="-794.0907578059187" x2="-966.7191834159009" y1="464.5641703437986" y2="565.5563812881027" class="tick day first"></line><line x1="-941.4428242060678" x2="-976.3110769544406" y1="529.2309597433837" y2="548.8321064005461" class="tick day weekday"></line><line x1="-950.4131802914185" x2="-985.6136684503599" y1="512.9471578324142" y2="531.9452007150961" class="tick day weekday"></line><line x1="-959.1019084398527" x2="-994.6242013450324" y1="496.5113586082725" y2="514.9006681863566" class="tick day weekday"></line><line x1="-967.5064339937015" x2="-1003.3400056230979" y1="479.9284323529824" y2="497.70355947716695" class="tick day weekday"></line><line x1="-962.0739294757889" x2="-1011.7584986036466" y1="456.7699138767951" y2="480.3589704619817" class="tick day weekend"></line><line x1="-969.7939310503402" x2="-1019.8771857055222" y1="440.14171728879313" y2="462.8720407168529" class="tick day weekend"></line><line x1="-990.990316144145" x2="-1027.6936611865208" y1="429.3462394251606" y2="445.24795199646286" class="tick day weekday"></line><line x1="-998.2339799685404" x2="-1035.2056088562642" y1="412.2243578879921" y2="427.49192669865846" class="tick day weekday"></line><line x1="-1005.1818455210177" x2="-1042.4108027625368" y1="394.9803253770507" y2="409.60922631694143" class="tick day weekday"></line><line x1="-1011.8318539990662" x2="-1049.3071078508833" y1="377.6192516713265" y2="391.6051498813756" class="tick day weekday"></line><line x1="-1018.1820348616545" x2="-1055.8924805972713" y1="360.1462812316415" y2="373.485032388369" class="tick day weekday"></line><line x1="-1010.0050827129628" x2="-1062.1649696136321" y1="337.80872234739775" y2="355.2542432197986" class="tick day weekend"></line><line x1="-1015.6702614114246" x2="-1068.122716226099" y1="320.3730951319859" y2="336.9181845519476" class="tick day weekend"></line><line x1="-1035.4152423462801" x2="-1073.763955025772" y1="307.10792226348383" y2="318.482289754724" class="tick day weekday"></line><line x1="-1040.5481924492808" x2="-1079.0870143918467" y1="289.2394495751483" y2="299.95202178163527" class="tick day weekday"></line><line x1="-1045.3728056659893" x2="-1084.0903169869518" y1="271.28526899560507" y2="281.3328715509979" class="tick day weekday"></line><line x1="-1049.8876523593863" x2="-1088.7723802245487" y1="253.25070073604286" y2="262.63035631885924" class="tick day weekday"></line><line x1="-1054.0913946829576" x2="-1093.1318167082525" y1="235.14108882825474" y2="243.850018044116" class="tick day weekday"></line><line x1="-1043.2885816024468" x2="-1097.1673346429488" y1="213.94844121412603" y2="224.99742174631095" class="tick day weekend"></line><line x1="-1046.816777858681" x2="-1100.8777382175801" y1="195.958244515429" y2="206.07815385660138" class="tick day weekend"></line><line x1="-1064.8240019609368" x2="-1104.26192795949" y1="180.4157555422885" y2="187.09782056237327" class="tick day weekday"></line><line x1="-1067.7717974509278" x2="-1107.3189010602214" y1="162.05983021222474" y2="168.06204614601083" class="tick day weekday"></line><line x1="-1070.4031891129312" x2="-1110.0477516726692" y1="143.65588305693154" y2="148.97647131829936" class="tick day weekday"></line><line x1="-1072.7173972088074" x2="-1112.4476711795041" y1="125.20936756314065" y2="129.84675154696066" class="tick day weekday"></line><line x1="-1074.7137359887533" x2="-1114.5179484327812" y1="106.72574983150135" y2="110.6785553808162" class="tick day weekday"></line><line x1="-1061.4417303681912" x2="-1116.2579699646703" y1="86.98536102690029" y2="91.47756277007355" class="tick day weekend"></line><line x1="-1062.7817763216426" x2="-1117.6672201692393" y1="68.70149866352222" y2="72.24946338323463" class="tick day weekend"></line><line x1="-1078.7900928318363" x2="-1118.7452814552375" y1="51.10709938822684" y2="52.99995492112413" class="tick day weekday"></line><line x1="-1079.5099831423458" x2="-1119.4918343698403" y1="32.52992923466048" y2="33.73474142853679" class="tick day weekday"></line><line x1="-919.9233259623588" x2="-1119.9066576933064" y1="11.87747238900808" y2="14.459531604009836" class="tick day first"></line><line x1="-1079.9899989150854" x2="-1119.989628504533" y1="-4.647821359943873" y2="-4.819962891793646" class="tick day weekday"></line><line x1="-1079.7499821382821" x2="-1119.7407222174777" y1="-23.23738523112008" y2="-24.09802912856897" class="tick day weekday"></line><line x1="-1064.201261970263" x2="-1119.1600125884454" y1="-41.23922915016583" y2="-43.36895459923543" class="tick day weekend"></line><line x1="-1063.333723530676" x2="-1118.247671694232" y1="-59.55159445714228" y2="-62.62702891267545" class="tick day weekend"></line><line x1="-1077.1109709568082" x2="-1117.0039698811343" y1="-78.94274028992356" y2="-81.86654548584666" class="tick day weekday"></line><line x1="-1075.5925158389534" x2="-1115.4292756848406" y1="-97.47173883352403" y2="-101.08180323476566" class="tick day weekday"></line><line x1="-1073.755339445468" x2="-1113.5240557212262" y1="-115.9718543972957" y2="-120.26710826386221" class="tick day weekday"></line><line x1="-1071.599986171367" x2="-1111.2888745480843" y1="-134.43760499773185" y2="-139.4167755532034" class="tick day weekday"></line><line x1="-1069.1270946943412" x2="-1108.7243944978354" y1="-152.863518834407" y2="-158.52513064308872" class="tick day weekday"></line><line x1="-1051.5271561495954" x2="-1105.8313754812648" y1="-168.86574513483856" y2="-177.586511315511" class="tick day weekend"></line><line x1="-1048.4646148409781" x2="-1102.6106747623433" y1="-186.9410372988211" y2="-196.59526927199965" class="tick day weekend"></line><line x1="-1059.810987893338" x2="-1099.0632467042024" y1="-207.8477085284964" y2="-215.5457718073296" class="tick day weekday"></line><line x1="-1056.0762088261095" x2="-1095.1901424863356" y1="-226.05981764009238" y2="-234.4324034786143" class="tick day weekday"></line><line x1="-1052.0284915862142" x2="-1090.9925097931111" y1="-244.20494034895114" y2="-253.24956776928266" class="tick day weekday"></line><line x1="-1047.6690355996277" x2="-1086.471592473688" y1="-262.2776998636102" y2="-271.99168874744765" class="tick day weekday"></line><line x1="-1042.9991326672434" x2="-1081.6287301734376" y1="-280.27274083538344" y2="-290.65321271817544" class="tick day weekday"></line><line x1="-1023.6032198240005" x2="-1076.465357936977" y1="-294.0432763488039" y2="-309.22860986916464" class="tick day weekend"></line><line x1="-1018.3900903203796" x2="-1070.9830057829345" y1="-311.6193574495156" y2="-327.7123759093497" class="tick day weekend"></line><line x1="-1027.1410375987657" x2="-1065.1832982505719" y1="-333.73835392494357" y2="-346.09903369994146" class="tick day weekday"></line><line x1="-1021.2440984213139" x2="-1059.0679539183996" y1="-351.3694514889388" y2="-364.38313487741806" class="tick day weekday"></line><line x1="-1015.0445425772471" x2="-1052.6387848949228" y1="-368.8964307012841" y2="-382.5592614679983" class="tick day weekday"></line><line x1="-1008.5442071287592" x2="-1045.8976962816762" y1="-386.31409793977554" y2="-400.6220274931006" class="tick day weekday"></line><line x1="-1001.7450182655324" x2="-1038.8466856087002" y1="-403.61729197370636" y2="-418.5660805653251" class="tick day weekday"></line><line x1="-980.8344214182158" x2="-1031.4878422426307" y1="-414.956428750289" y2="-436.38610347448235" class="tick day weekend"></line><line x1="-973.5463074173806" x2="-1023.823346767574" y1="-431.77840070339676" y2="-454.0768157631966" class="tick day weekend"></line><line x1="-979.5749178268469" x2="-1015.8554703389524" y1="-454.78894045977637" y2="-471.6329752916199" class="tick day weekday"></line><line x1="-971.6013392244231" x2="-1007.5865740105128" y1="-471.58333051254857" y2="-489.0493797907911" class="tick day weekday"></line><line x1="-963.3398541763122" x2="-999.0191080346941" y1="-488.2379802468889" y2="-506.3208684041811" class="tick day weekday"></line><line x1="-954.7929107388326" x2="-990.1556111365671" y1="-504.7479545306427" y2="-523.4423232169628" class="tick day weekday"></line><line x1="-945.9630415557823" x2="-980.998709761552" y1="-521.108361102116" y2="-540.4086707725647" class="tick day weekday"></line><line x1="-798.0598463512291" x2="-971.5511172971484" y1="-457.71222579460624" y2="-557.2148835760424" class="tick day first"></line><line x1="-923.8410177870206" x2="-971.5511172971484" y1="-529.8516526861474" y2="-557.2148835760424" class="tick day weekend"></line><line x1="-914.5836155637302" x2="-961.8156332688993" y1="-545.675553916771" y2="-573.8559815838344" class="tick day weekend"></line><line x1="-917.8024588497302" x2="-951.7951425108313" y1="-569.2439253337618" y2="-590.3270336794567" class="tick day weekday"></line><line x1="-907.8678780852366" x2="-941.4926143106157" y1="-584.9580463084598" y2="-606.623159134699" class="tick day weekday"></line><line x1="-897.6642764750727" x2="-930.9111015297051" y1="-600.4988315896078" y2="-622.7395290558896" class="tick day weekday"></line><line x1="-887.1946775666075" x2="-920.0537396987041" y1="-615.8616761071297" y2="-638.6713678148011" class="tick day weekday"></line><line x1="-876.4621837279502" x2="-908.9237460882447" y1="-631.0420275186376" y2="-654.4139544637723" class="tick day weekday"></line><line x1="-853.4495589060305" x2="-897.5244187556376" y1="-637.0626738423011" y2="-669.9626241346266" class="tick day weekend"></line><line x1="-842.3571244459675" x2="-885.8591355675903" y1="-651.6590173511916" y2="-685.3127694209714" class="tick day weekend"></line><line x1="-842.7195191564374" x2="-873.9313531992684" y1="-675.443418824066" y2="-700.459841743476" class="tick day weekday"></line><line x1="-830.9680130346528" x2="-861.7446061100103" y1="-689.8493758156494" y2="-715.3993526977105" class="tick day weekday"></line><line x1="-818.9702731568475" x2="-849.3025054959901" y1="-704.0509155490095" y2="-730.126875384158" class="tick day weekday"></line><line x1="-806.7298547122798" x2="-836.608738220142" y1="-718.0438298014293" y2="-744.6380457200007" class="tick day weekday"></line><line x1="-794.2503848011046" x2="-823.667065719664" y1="-731.8239721704238" y2="-758.9285637322913" class="tick day weekday"></line><line x1="-770.680900785147" x2="-810.4813228914221" y1="-735.0346584787649" y2="-772.9941948321283" class="tick day weekend"></line><line x1="-757.9143027300903" x2="-797.0554169555879" y1="-748.1917599901518" y2="-786.8307710694554" class="tick day weekend"></line><line x1="-755.4149932157793" x2="-783.3933262978452" y1="-771.8472569263974" y2="-800.4341923681159" class="tick day weekday"></line><line x1="-742.0169886015601" x2="-769.4990992905068" y1="-784.736126750051" y2="-813.8004277407936" class="tick day weekday"></line><line x1="-728.399108339581" x2="-755.3768530928988" y1="-797.3924623233552" y2="-826.9255164834794" class="tick day weekday"></line><line x1="-714.5653877016605" x2="-741.0307724313516" y1="-809.8125133009341" y2="-839.8055693491169" class="tick day weekday"></line><line x1="-700.5199259177804" x2="-726.4651083591797" y1="-821.9925993536363" y2="-852.4367697000673" class="tick day weekday"></line><line x1="-676.7354004480391" x2="-711.6841769969989" y1="-822.3467624916099" y2="-864.815374639064" class="tick day weekend"></line><line x1="-662.4797870895244" x2="-696.6923582537721" y1="-833.8738104160716" y2="-876.93771611831" class="tick day weekend"></line><line x1="-657.1550197243364" x2="-681.4940945289414" y1="-857.057337668319" y2="-888.8002020264048" class="tick day weekday"></line><line x1="-642.3048219176243" x2="-666.0938893960548" y1="-868.242198779447" y2="-900.3993172527599" class="tick day weekday"></line><line x1="-627.2642953301054" x2="-650.4963062682574" y1="-879.169780988875" y2="-911.7316247292036" class="tick day weekday"></line><line x1="-612.0378967944071" x2="-634.7059670460518" y1="-889.8368462181585" y2="-922.7937664484607" class="tick day weekday"></line><line x1="-596.6301382210289" x2="-618.7275507477337" y1="-900.2402335856556" y2="-933.5824644591984" class="tick day weekday"></line><line x1="-572.9755076882893" x2="-602.5657921228958" y1="-897.7327372828436" y2="-944.0945218373566" class="tick day weekend"></line><line x1="-557.4376218443109" x2="-586.2254802494161" y1="-907.4625599728944" y2="-954.3268236334665" class="tick day weekend"></line><line x1="-467.9772683439365" x2="-569.7114571143575" y1="-792.0841346178746" y2="-964.2763377956734" class="tick day first"></line><line x1="-533.2775941727755" x2="-553.0286161791746" y1="-939.1565404943398" y2="-973.9401160682042" class="tick day weekday"></line><line x1="-517.0325473250522" x2="-536.1819009296837" y1="-948.1968914769589" y2="-983.3152948649944" class="tick day weekday"></line><line x1="-500.63429257507926" x2="-519.1763034111933" y1="-956.9562712568688" y2="-992.3990961182344" class="tick day weekday"></line><line x1="-484.08768907964344" x2="-502.0168627492598" y1="-965.4320842407975" y2="-1001.1888281015678" class="tick day weekday"></line><line x1="-460.90600606620967" x2="-484.70866365648345" y1="-960.0992936004562" y2="-1009.6818862277098" class="tick day weekend"></line><line x1="-444.3111867821175" x2="-467.2568349257949" y1="-967.8907837665706" y2="-1017.8757538202433" class="tick day weekend"></line><line x1="-433.6070283424507" x2="-449.6665479106896" y1="-989.1334313286702" y2="-1025.7680028593618" class="tick day weekday"></line><line x1="-416.516478743096" x2="-431.9430149928403" y1="-996.4507127477265" y2="-1033.356294701346" class="tick day weekday"></line><line x1="-399.302506321927" x2="-414.0914880375539" y1="-1003.4727243154282" y2="-1040.6383807715551" class="tick day weekday"></line><line x1="-381.97021195048177" x2="-396.1172568375367" y1="-1010.1973852581999" y2="-1047.6121032307258" class="tick day weekday"></line><line x1="-364.5247315616425" x2="-378.025647545407" y1="-1016.6227029138747" y2="-1054.2753956143886" class="tick day weekday"></line><line x1="-342.15218970236884" x2="-359.8220210954489" y1="-1008.54195702602" y2="-1060.626283445204" class="tick day weekend"></line><line x1="-324.74110425894816" x2="-341.51177161504404" y1="-1014.2821181528732" y2="-1066.662884818045" class="tick day weekend"></line><line x1="-311.56102751105766" x2="-323.100324826282" y1="-1034.0840034234425" y2="-1072.383410957644" class="tick day weekday"></line><line x1="-293.7148101368345" x2="-304.5931364381987" y1="-1039.2938036504804" y2="-1077.7861667486463" class="tick day weekday"></line><line x1="-275.7815587254821" x2="-285.9956905301296" y1="-1044.1956386936997" y2="-1082.8695512379109" class="tick day weekday"></line><line x1="-257.76658728642593" x2="-267.3134979266639" y1="-1048.7880560335866" y2="-1087.6320581089044" class="tick day weekday"></line><line x1="-239.6752340444991" x2="-248.5520945646657" y1="-1053.0696948377702" y2="-1092.072276128058" class="tick day weekday"></line><line x1="-218.43629236007945" x2="-229.7170398528535" y1="-1042.3581851647648" y2="-1096.1888895629452" class="tick day weekend"></line><line x1="-200.46144598305565" x2="-210.81391502443412" y1="-1045.9637702494206" y2="-1099.9806785721605" class="tick day weekend"></line><line x1="-184.99659571599597" x2="-191.8483214832551" y1="-1064.0377152965455" y2="-1103.4465195667879" class="tick day weekday"></line><line x1="-166.65352631742343" x2="-172.82587914399465" y1="-1067.0644789167934" y2="-1106.5853855433413" class="tick day weekday"></line><line x1="-148.26107388232631" x2="-153.75222476685693" y1="-1069.7750483028005" y2="-1109.3963463880896" class="tick day weekday"></line><line x1="-129.82468849130092" x2="-134.633010287275" y1="-1072.1686202543594" y2="-1111.878569152669" class="tick day weekday"></line><line x1="-111.34983324323022" x2="-115.47390114112763" y1="-1074.2444855044428" y2="-1114.0313183009036" class="tick day weekday"></line><line x1="-91.55251065538067" x2="-96.28057458594024" y1="-1061.0575563053574" y2="-1115.8539559267608" class="tick day weekend"></line><line x1="-73.27458454447047" x2="-77.05871801859806" y1="-1062.4762751515138" y2="-1117.345941943376" class="tick day weekend"></line><line x1="-55.749240601114444" x2="-57.81402729004461" y1="-1078.5601615915539" y2="-1118.506834243093" class="tick day weekday"></line><line x1="-37.17534055256541" x2="-38.55220501747524" y1="-1079.3599927988812" y2="-1119.3362888284694" class="tick day weekday"></line><line x1="-18.59042464830204" x2="-19.27895889453545" y1="-1079.8399863458455" y2="-1119.8340599142102" class="tick day weekday"></line><text x="-506.00000000000006" y="0" class="label year">2025</text><path d="
		M 12 160
		L -12 160
		L 0, -950
		Z
		M 30 0
		A 30,30 0 1 1 -30,00
		A 30,30 0 1 1 30,00" transform="matrix(0.0555,0.9985,-0.9985,0.0555,0,0)" class="needle year"></path></svg>
