<svg xmlns="http://www.w3.org/2000/svg" viewBox="-600 -600 1200 1200" width="100%" height="100%"
	preserveAspectRatio="xMidYMid meet">
	<title>Dodecagram r105,600 l225,1000</title>
	<style>
		line,
		polygon {
			stroke: gold;
			fill: gold;
			fill-rule: evenodd;
		}
	</style>
	<!-- <rect fill="darkgoldenrod" x="-350" y="-27" width="1052" height="1052" /> -->


	<line x1="-237.5" y1="-500" x2="-44.31483474218635" y2="-551.7638090205041"></line>
	<line x1="-44.31483474218635" y1="-551.7638090205041" x2="455.6851652578136" y2="314.26159476393457"></line>
	<line x1="455.6851652578136" y1="314.26159476393457" x2="314.26380902050414" y2="455.6829510012441"></line>
	<line x1="314.26380902050414" y1="455.6829510012441" x2="-551.7615947639345" y2="-44.317048998756036"></line>
	<line x1="-551.7615947639345" y1="-44.317048998756036" x2="-499.99778574343026" y2="-237.5022142565697"></line>
	<line x1="-499.99778574343026" y1="-237.5022142565697" x2="500.00221425656974" y2="-237.50221425657"></line>
	<line x1="500.00221425656974" y1="-237.50221425657" x2="551.7660232770739" y2="-44.31704899875635"></line>
	<line x1="551.7660232770739" y1="-44.31704899875635" x2="-314.25938050736477" y2="455.6829510012435"></line>
	<line x1="-314.25938050736477" y1="455.6829510012435" x2="-455.68073674467445" y2="314.2615947639342"></line>
	<line x1="-455.68073674467445" y1="314.2615947639342" x2="44.31926325532612" y2="-551.763809020504"></line>
	<line x1="44.31926325532612" y1="-551.763809020504" x2="237.50442851313983" y2="-500.00000000000006"></line>
	<line x1="237.50442851313983" y1="-500.00000000000006" x2="237.50442851314045" y2="499.99999999999994"></line>
	<line x1="237.50442851314045" y1="499.99999999999994" x2="44.3192632553268" y2="551.7638090205041"></line>
	<line x1="44.3192632553268" y1="551.7638090205041" x2="-455.6807367446733" y2="-314.26159476393445"></line>
	<line x1="-455.6807367446733" y1="-314.26159476393445" x2="-314.2593805073638" y2="-455.68295100124396"></line>
	<line x1="-314.2593805073638" y1="-455.68295100124396" x2="551.7660232770747" y2="44.31704899875638"></line>
	<line x1="551.7660232770747" y1="44.31704899875638" x2="500.00221425657116" y2="237.5022142565702"></line>
	<line x1="500.00221425657116" y1="237.5022142565702" x2="-499.99778574342884" y2="237.5022142565729"></line>
	<line x1="-499.99778574342884" y1="237.5022142565729" x2="-551.7615947639327" y2="44.31704899875919"></line>
	<line x1="-551.7615947639327" y1="44.31704899875919" x2="314.2638090205065" y2="-455.68295100123964"></line>
	<line x1="314.2638090205065" y1="-455.68295100123964" x2="455.6851652578163" y2="-314.2615947639304"></line>
	<line x1="455.6851652578163" y1="-314.2615947639304" x2="-44.3148347421822" y2="551.7638090205091"></line>
	<line x1="-44.3148347421822" y1="551.7638090205091" x2="-237.49999999999574" y2="500.0000000000046"></line>
	<line x1="-237.49999999999574" y1="500.0000000000046" x2="-237.49999999999696" y2="-499.9999999999954"></line>



</svg>