<svg xmlns="http://www.w3.org/2000/svg" viewBox="-600 -600 1200 1200" width="100%" height="100%"
	preserveAspectRatio="xMidYMid meet">
	<title>Dodecagram r105,600 l225,1000</title>
	<style>
		line,
		polygon {
			stroke: gold;
			fill: gold;
			fill-rule: evenodd;
		}
	</style>
	<!-- <rect fill="darkgoldenrod" x="-350" y="-27" width="1052" height="1052" /> -->

	<polygon points=""/>

	<line x1="-237.5" y1="-500" x2="-44" y2="-552"></line>
	<line x1="-44" y1="-552" x2="456" y2="314"></line>
	<line x1="456" y1="314" x2="314" y2="456"></line>
	<line x1="314" y1="456" x2="-552" y2="-44"></line>
	<line x1="-552" y1="-44" x2="-500" y2="-237.5"></line>
	<line x1="-500" y1="-237.5" x2="500" y2="-237.5"></line>
	<line x1="500" y1="-237.5" x2="552" y2="-44"></line>
	<line x1="552" y1="-44" x2="-314" y2="456"></line>
	<line x1="-314" y1="456" x2="-456" y2="314"></line>
	<line x1="-456" y1="314" x2="44" y2="-552"></line>
	<line x1="44" y1="-552" x2="237.5" y2="-500"></line>
	<line x1="237.5" y1="-500" x2="237.5" y2="500"></line>
	<line x1="237.5" y1="500" x2="44" y2="552"></line>
	<line x1="44" y1="552" x2="-456" y2="-314"></line>
	<line x1="-456" y1="-314" x2="-314" y2="-456"></line>
	<line x1="-314" y1="-456" x2="552" y2="44"></line>
	<line x1="552" y1="44" x2="500" y2="237.5"></line>
	<line x1="500" y1="237.5" x2="-500" y2="237.5"></line>
	<line x1="-500" y1="237.5" x2="-552" y2="44"></line>
	<line x1="-552" y1="44" x2="314" y2="-456"></line>
	<line x1="314" y1="-456" x2="456" y2="-314"></line>
	<line x1="456" y1="-314" x2="-44" y2="552"></line>
	<line x1="-44" y1="552" x2="-237.5" y2="500"></line>
	<line x1="-237.5" y1="500" x2="-237.5" y2="-500"></line>



</svg>