<svg xmlns="http://www.w3.org/2000/svg" id="clock" width="100%" height="100%" viewBox="-1200 -1200 2400 2400" preserveAspectRatio="xMidYMid meet">

<style>
svg#clock {
	background-color: seashell;
	font-size: 48px;
	font-family: sans-serif;
}

svg#clock .face   {
	fill: whitesmoke;
	stroke: silver;
	stroke-width: 10;
	filter: drop-shadow(0px 10px 10px gray);
}

svg#clock .sector.jan { fill: #E42D1A }
svg#clock .sector.feb { fill: #983021 }
svg#clock .sector.mar { fill: #89493B }
svg#clock .sector.apr { fill: #7C5E57 }
svg#clock .sector.may { fill: #6F6E6D }
svg#clock .sector.jun { fill: #738C92 }
svg#clock .sector.jul { fill: #7ABECF }
svg#clock .sector.aug { fill: #5FB69C }
svg#clock .sector.sep { fill: #2EA544 }
svg#clock .sector.oct { fill: #AEC013 }
svg#clock .sector.nov { fill: #F3C301 }
svg#clock .sector.dec { fill: #F18E17 }

svg#clock .tick {
	stroke: white
}

svg#clock .tick.day {
	stroke-linecap: round;
}

svg#clock .tick.day .first {
	stroke-width: 5;
}

svg#clock .tick.day .weekday {
	stroke-width: 2;
}

svg#clock .tick.day .weekend {
	stroke-width: 5;
}

svg#clock .label.year {
	fill: gray;
	text-anchor: middle;
	font-size: 5em;
	dominant-baseline: central;
	filter: drop-shadow(0px 20px 10px gray);
}

svg#clock .label.month {
	fill: white;
	text-anchor: middle;
	dominant-baseline: middle;
}

svg#clock .needle {
	stroke: black;
	fill: black;
	stroke-width: 15;
	stroke-linejoin: round;
	filter: drop-shadow(0px 20px 10px gray);
}
</style>

<circle cx="0" cy="0" r="1170" class="face"></circle><g class="month sector"><path d="
M 0.000 -1120
A 1120 1120 0 0 1 569.7 -964.3
L 468.0 -792.1
A 920.0 920.0 0 0 0 0.000 -920.0
Z" class="sector jan"></path><path d="
M 569.7 -964.3
A 1120 1120 0 0 1 951.8 -590.3
L 781.8 -484.9
A 920.0 920.0 0 0 0 468.0 -792.1
Z" class="sector feb"></path><path d="
M 951.8 -590.3
A 1120 1120 0 0 1 1120 -24.10
L 919.8 -19.79
A 920.0 920.0 0 0 0 781.8 -484.9
Z" class="sector mar"></path><path d="
M 1120 -24.10
A 1120 1120 0 0 1 985.6 531.9
L 809.6 437.0
A 920.0 920.0 0 0 0 919.8 -19.79
Z" class="sector apr"></path><path d="
M 985.6 531.9
A 1120 1120 0 0 1 578.0 959.3
L 474.8 788.0
A 920.0 920.0 0 0 0 809.6 437.0
Z" class="sector may"></path><path d="
M 578.0 959.3
A 1120 1120 0 0 1 28.92 1120
L 23.75 919.7
A 920.0 920.0 0 0 0 474.8 788.0
Z" class="sector jun"></path><path d="
M 28.92 1120
A 1120 1120 0 0 1 -544.6 978.7
L -447.4 803.9
A 920.0 920.0 0 0 0 23.75 919.7
Z" class="sector jul"></path><path d="
M -544.6 978.7
A 1120 1120 0 0 1 -966.7 565.6
L -794.1 464.6
A 920.0 920.0 0 0 0 -447.4 803.9
Z" class="sector aug"></path><path d="
M -966.7 565.6
A 1120 1120 0 0 1 -1120 14.46
L -919.9 11.88
A 920.0 920.0 0 0 0 -794.1 464.6
Z" class="sector sep"></path><path d="
M -1120 14.46
A 1120 1120 0 0 1 -971.6 -557.2
L -798.1 -457.7
A 920.0 920.0 0 0 0 -919.9 11.88
Z" class="sector oct"></path><path d="
M -971.6 -557.2
A 1120 1120 0 0 1 -569.7 -964.3
L -468.0 -792.1
A 920.0 920.0 0 0 0 -798.1 -457.7
Z" class="sector nov"></path><path d="
M -569.7 -964.3
A 1120 1120 0 0 1 -0.0002231 -1120
L -0.0001833 -920.0
A 920.0 920.0 0 0 0 -468.0 -792.1
Z" class="sector dec"></path></g><g class="month label"><text x="258.3920887011883" y="-945.3219179182493" transform="rotate(15.287665525114154, 258.3920887011883, -945.3219179182493)">January</text><text x="685.4690907392887" y="-700.3799866080217" transform="rotate(44.38355593607306, 685.4690907392887, -700.3799866080217)">February</text><text x="939.5434328864499" y="-278.67209713199674" transform="rotate(73.47944634703195, 939.5434328864499, -278.67209713199674)">March</text><text x="952.6758555891346" y="229.80146687414882" transform="rotate(283.5616381278539, 952.6758555891346, 229.80146687414882)">April</text><text x="709.1712249094545" y="676.3698498310107" transform="rotate(313.6438299086758, 709.1712249094545, 676.3698498310107)">May</text><text x="274.6261554104495" y="940.7340085085027" transform="rotate(343.72602168949766, 274.6261554104495, 940.7340085085027)">June</text><text x="-233.89921588037691" y="951.6780741461605" transform="rotate(373.80821347031963, -233.89921588037691, 951.6780741461605)">July</text><text x="-685.4690907392885" y="700.3799866080219" transform="rotate(404.38355593607304, -685.4690907392885, 700.3799866080219)">August</text><text x="-944.2011114469902" y="262.45811311953815" transform="rotate(434.46574771689495, -944.2011114469902, 262.45811311953815)">September</text><text x="-948.5790518864766" y="-246.16616811039057" transform="rotate(284.54793949771687, -948.5790518864766, -246.16616811039057)">October</text><text x="-697.4235584216908" y="-688.4768552089653" transform="rotate(314.6301312785388, -697.4235584216908, -688.4768552089653)">November</text><text x="-258.39227704570425" y="-945.3218664365784" transform="rotate(344.71232305936064, -258.39227704570425, -945.3218664365784)">December</text></g><g class="day tick"><line x1="0.000" y1="-920.0" x2="0.000" y2="-1120" class="first"></line><line x1="18.33" y1="-1065" x2="19.28" y2="-1120" class="weekend"></line><line x1="36.66" y1="-1064" x2="38.55" y2="-1119" class="weekend"></line><line x1="55.75" y1="-1079" x2="57.81" y2="-1119" class="weekday"></line><line x1="74.31" y1="-1077" x2="77.06" y2="-1117" class="weekday"></line><line x1="92.84" y1="-1076" x2="96.28" y2="-1116" class="weekday"></line><line x1="111.3" y1="-1074" x2="115.5" y2="-1114" class="weekday"></line><line x1="129.8" y1="-1072" x2="134.6" y2="-1112" class="weekday"></line><line x1="146.2" y1="-1055" x2="153.8" y2="-1109" class="weekend"></line><line x1="164.3" y1="-1052" x2="172.8" y2="-1107" class="weekend"></line><line x1="185.0" y1="-1064" x2="191.8" y2="-1103" class="weekday"></line><line x1="203.3" y1="-1061" x2="210.8" y2="-1100" class="weekday"></line><line x1="221.5" y1="-1057" x2="229.7" y2="-1096" class="weekday"></line><line x1="239.7" y1="-1053" x2="248.6" y2="-1092" class="weekday"></line><line x1="257.8" y1="-1049" x2="267.3" y2="-1088" class="weekday"></line><line x1="272.0" y1="-1030" x2="286.0" y2="-1083" class="weekend"></line><line x1="289.6" y1="-1025" x2="304.6" y2="-1078" class="weekend"></line><line x1="311.6" y1="-1034" x2="323.1" y2="-1072" class="weekday"></line><line x1="329.3" y1="-1029" x2="341.5" y2="-1067" class="weekday"></line><line x1="347.0" y1="-1023" x2="359.8" y2="-1061" class="weekday"></line><line x1="364.5" y1="-1017" x2="378.0" y2="-1054" class="weekday"></line><line x1="382.0" y1="-1010" x2="396.1" y2="-1048" class="weekday"></line><line x1="393.8" y1="-989.5" x2="414.1" y2="-1041" class="weekend"></line><line x1="410.7" y1="-982.6" x2="431.9" y2="-1033" class="weekend"></line><line x1="433.6" y1="-989.1" x2="449.7" y2="-1026" class="weekday"></line><line x1="450.6" y1="-981.5" x2="467.3" y2="-1018" class="weekday"></line><line x1="467.4" y1="-973.6" x2="484.7" y2="-1010" class="weekday"></line><line x1="484.1" y1="-965.4" x2="502.0" y2="-1001" class="weekday"></line><line x1="500.6" y1="-957.0" x2="519.2" y2="-992.4" class="weekday"></line><line x1="509.9" y1="-935.0" x2="536.2" y2="-983.3" class="weekend"></line><line x1="525.9" y1="-926.1" x2="553.0" y2="-973.9" class="weekend"></line><line x1="468.0" y1="-792.1" x2="569.7" y2="-964.3" class="first"></line><line x1="565.3" y1="-920.2" x2="586.2" y2="-954.3" class="weekday"></line><line x1="581.0" y1="-910.4" x2="602.6" y2="-944.1" class="weekday"></line><line x1="596.6" y1="-900.2" x2="618.7" y2="-933.6" class="weekday"></line><line x1="612.0" y1="-889.8" x2="634.7" y2="-922.8" class="weekday"></line><line x1="618.6" y1="-867.0" x2="650.5" y2="-911.7" class="weekend"></line><line x1="633.4" y1="-856.2" x2="666.1" y2="-900.4" class="weekend"></line><line x1="657.2" y1="-857.1" x2="681.5" y2="-888.8" class="weekday"></line><line x1="671.8" y1="-845.6" x2="696.7" y2="-876.9" class="weekday"></line><line x1="686.3" y1="-833.9" x2="711.7" y2="-864.8" class="weekday"></line><line x1="700.5" y1="-822.0" x2="726.5" y2="-852.4" class="weekday"></line><line x1="714.6" y1="-809.8" x2="741.0" y2="-839.8" class="weekday"></line><line x1="718.3" y1="-786.3" x2="755.4" y2="-826.9" class="weekend"></line><line x1="731.7" y1="-773.8" x2="769.5" y2="-813.8" class="weekend"></line><line x1="755.4" y1="-771.8" x2="783.4" y2="-800.4" class="weekday"></line><line x1="768.6" y1="-758.7" x2="797.1" y2="-786.8" class="weekday"></line><line x1="781.5" y1="-745.4" x2="810.5" y2="-773.0" class="weekday"></line><line x1="794.3" y1="-731.8" x2="823.7" y2="-758.9" class="weekday"></line><line x1="806.7" y1="-718.0" x2="836.6" y2="-744.6" class="weekday"></line><line x1="807.6" y1="-694.3" x2="849.3" y2="-730.1" class="weekend"></line><line x1="819.4" y1="-680.3" x2="861.7" y2="-715.4" class="weekend"></line><line x1="842.7" y1="-675.4" x2="873.9" y2="-700.5" class="weekday"></line><line x1="854.2" y1="-660.8" x2="885.9" y2="-685.3" class="weekday"></line><line x1="865.5" y1="-646.0" x2="897.5" y2="-670.0" class="weekday"></line><line x1="876.5" y1="-631.0" x2="908.9" y2="-654.4" class="weekday"></line><line x1="887.2" y1="-615.9" x2="920.1" y2="-638.7" class="weekday"></line><line x1="885.2" y1="-592.2" x2="930.9" y2="-622.7" class="weekend"></line><line x1="895.3" y1="-576.8" x2="941.5" y2="-606.6" class="weekend"></line><line x1="781.8" y1="-484.9" x2="951.8" y2="-590.3" class="first"></line><line x1="927.5" y1="-553.4" x2="961.8" y2="-573.9" class="weekday"></line><line x1="936.9" y1="-537.3" x2="971.6" y2="-557.2" class="weekday"></line><line x1="946.0" y1="-521.1" x2="981.0" y2="-540.4" class="weekday"></line><line x1="954.8" y1="-504.7" x2="990.2" y2="-523.4" class="weekday"></line><line x1="950.0" y1="-481.5" x2="999.0" y2="-506.3" class="weekend"></line><line x1="958.1" y1="-465.0" x2="1008" y2="-489.0" class="weekend"></line><line x1="979.6" y1="-454.8" x2="1016" y2="-471.6" class="weekday"></line><line x1="987.3" y1="-437.9" x2="1024" y2="-454.1" class="weekday"></line><line x1="994.6" y1="-420.8" x2="1031" y2="-436.4" class="weekday"></line><line x1="1002" y1="-403.6" x2="1039" y2="-418.6" class="weekday"></line><line x1="1009" y1="-386.3" x2="1046" y2="-400.6" class="weekday"></line><line x1="1001" y1="-363.8" x2="1053" y2="-382.6" class="weekend"></line><line x1="1007" y1="-346.5" x2="1059" y2="-364.4" class="weekend"></line><line x1="1027" y1="-333.7" x2="1065" y2="-346.1" class="weekday"></line><line x1="1033" y1="-316.0" x2="1071" y2="-327.7" class="weekday"></line><line x1="1038" y1="-298.2" x2="1076" y2="-309.2" class="weekday"></line><line x1="1043" y1="-280.3" x2="1082" y2="-290.7" class="weekday"></line><line x1="1048" y1="-262.3" x2="1086" y2="-272.0" class="weekday"></line><line x1="1037" y1="-240.8" x2="1091" y2="-253.2" class="weekend"></line><line x1="1041" y1="-222.9" x2="1095" y2="-234.4" class="weekend"></line><line x1="1060" y1="-207.8" x2="1099" y2="-215.5" class="weekday"></line><line x1="1063" y1="-189.6" x2="1103" y2="-196.6" class="weekday"></line><line x1="1066" y1="-171.2" x2="1106" y2="-177.6" class="weekday"></line><line x1="1069" y1="-152.9" x2="1109" y2="-158.5" class="weekday"></line><line x1="1072" y1="-134.4" x2="1111" y2="-139.4" class="weekday"></line><line x1="1059" y1="-114.4" x2="1114" y2="-120.3" class="weekend"></line><line x1="1061" y1="-96.12" x2="1115" y2="-101.1" class="weekend"></line><line x1="1077" y1="-78.94" x2="1117" y2="-81.87" class="weekday"></line><line x1="1078" y1="-60.39" x2="1118" y2="-62.63" class="weekday"></line><line x1="1079" y1="-41.82" x2="1119" y2="-43.37" class="weekday"></line><line x1="919.8" y1="-19.79" x2="1120" y2="-24.10" class="first"></line><line x1="1080" y1="-4.648" x2="1120" y2="-4.820" class="weekday"></line><line x1="1065" y1="13.75" x2="1120" y2="14.46" class="weekend"></line><line x1="1065" y1="32.08" x2="1119" y2="33.73" class="weekend"></line><line x1="1079" y1="51.11" x2="1119" y2="53.00" class="weekday"></line><line x1="1078" y1="69.67" x2="1118" y2="72.25" class="weekday"></line><line x1="1076" y1="88.21" x2="1116" y2="91.48" class="weekday"></line><line x1="1075" y1="106.7" x2="1115" y2="110.7" class="weekday"></line><line x1="1073" y1="125.2" x2="1112" y2="129.8" class="weekday"></line><line x1="1056" y1="141.7" x2="1110" y2="149.0" class="weekend"></line><line x1="1053" y1="159.8" x2="1107" y2="168.1" class="weekend"></line><line x1="1065" y1="180.4" x2="1104" y2="187.1" class="weekday"></line><line x1="1062" y1="198.7" x2="1101" y2="206.1" class="weekday"></line><line x1="1058" y1="217.0" x2="1097" y2="225.0" class="weekday"></line><line x1="1054" y1="235.1" x2="1093" y2="243.9" class="weekday"></line><line x1="1050" y1="253.3" x2="1089" y2="262.6" class="weekday"></line><line x1="1031" y1="267.5" x2="1084" y2="281.3" class="weekend"></line><line x1="1026" y1="285.2" x2="1079" y2="300.0" class="weekend"></line><line x1="1035" y1="307.1" x2="1074" y2="318.5" class="weekday"></line><line x1="1030" y1="324.9" x2="1068" y2="336.9" class="weekday"></line><line x1="1024" y1="342.6" x2="1062" y2="355.3" class="weekday"></line><line x1="1018" y1="360.1" x2="1056" y2="373.5" class="weekday"></line><line x1="1012" y1="377.6" x2="1049" y2="391.6" class="weekday"></line><line x1="991.2" y1="389.5" x2="1042" y2="409.6" class="weekend"></line><line x1="984.4" y1="406.5" x2="1035" y2="427.5" class="weekend"></line><line x1="991.0" y1="429.3" x2="1028" y2="445.2" class="weekday"></line><line x1="983.5" y1="446.3" x2="1020" y2="462.9" class="weekday"></line><line x1="975.6" y1="463.2" x2="1012" y2="480.4" class="weekday"></line><line x1="967.5" y1="479.9" x2="1003" y2="497.7" class="weekday"></line><line x1="959.1" y1="496.5" x2="994.6" y2="514.9" class="weekday"></line><line x1="809.6" y1="437.0" x2="985.6" y2="531.9" class="first"></line><line x1="928.4" y1="521.9" x2="976.3" y2="548.8" class="weekend"></line><line x1="932.2" y1="545.4" x2="966.7" y2="565.6" class="weekday"></line><line x1="922.7" y1="561.3" x2="956.8" y2="582.1" class="weekday"></line><line x1="912.9" y1="577.1" x2="946.7" y2="598.5" class="weekday"></line><line x1="902.8" y1="592.8" x2="936.2" y2="614.7" class="weekday"></line><line x1="892.5" y1="608.2" x2="925.5" y2="630.7" class="weekday"></line><line x1="869.6" y1="614.8" x2="914.5" y2="646.6" class="weekend"></line><line x1="858.9" y1="629.7" x2="903.3" y2="662.2" class="weekend"></line><line x1="859.9" y1="653.5" x2="891.7" y2="677.7" class="weekday"></line><line x1="848.5" y1="668.2" x2="879.9" y2="692.9" class="weekday"></line><line x1="836.9" y1="682.7" x2="867.9" y2="708.0" class="weekday"></line><line x1="825.0" y1="697.0" x2="855.6" y2="722.8" class="weekday"></line><line x1="812.9" y1="711.1" x2="843.0" y2="737.4" class="weekday"></line><line x1="789.4" y1="714.9" x2="830.2" y2="751.8" class="weekend"></line><line x1="777.0" y1="728.4" x2="817.1" y2="766.0" class="weekend"></line><line x1="775.1" y1="752.1" x2="803.8" y2="779.9" class="weekday"></line><line x1="762.0" y1="765.3" x2="790.3" y2="793.7" class="weekday"></line><line x1="748.7" y1="778.3" x2="776.5" y2="807.1" class="weekday"></line><line x1="735.2" y1="791.1" x2="762.5" y2="820.4" class="weekday"></line><line x1="721.5" y1="803.6" x2="748.2" y2="833.4" class="weekday"></line><line x1="697.7" y1="804.6" x2="733.8" y2="846.2" class="weekend"></line><line x1="683.8" y1="816.5" x2="719.1" y2="858.7" class="weekend"></line><line x1="679.1" y1="839.8" x2="704.2" y2="870.9" class="weekday"></line><line x1="664.5" y1="851.4" x2="689.1" y2="882.9" class="weekday"></line><line x1="649.8" y1="862.7" x2="673.8" y2="894.6" class="weekday"></line><line x1="634.8" y1="873.7" x2="658.3" y2="906.1" class="weekday"></line><line x1="619.7" y1="884.5" x2="642.6" y2="917.3" class="weekday"></line><line x1="596.0" y1="882.6" x2="626.7" y2="928.2" class="weekend"></line><line x1="580.7" y1="892.8" x2="610.7" y2="938.9" class="weekend"></line><line x1="573.2" y1="915.3" x2="594.4" y2="949.2" class="weekday"></line><line x1="474.8" y1="788.0" x2="578.0" y2="959.3" class="first"></line><line x1="541.3" y1="934.5" x2="561.4" y2="969.1" class="weekday"></line><line x1="525.2" y1="943.7" x2="544.6" y2="978.7" class="weekday"></line><line x1="508.9" y1="952.6" x2="527.7" y2="987.9" class="weekday"></line><line x1="485.5" y1="947.9" x2="510.6" y2="996.8" class="weekend"></line><line x1="469.2" y1="956.1" x2="493.4" y2="1005" class="weekend"></line><line x1="459.0" y1="977.6" x2="476.0" y2="1014" class="weekday"></line><line x1="442.1" y1="985.4" x2="458.5" y2="1022" class="weekday"></line><line x1="425.1" y1="992.8" x2="440.8" y2="1030" class="weekday"></line><line x1="407.9" y1="1000" x2="423.0" y2="1037" class="weekday"></line><line x1="390.7" y1="1007" x2="405.1" y2="1044" class="weekday"></line><line x1="368.1" y1="999.4" x2="387.1" y2="1051" class="weekend"></line><line x1="350.8" y1="1006" x2="368.9" y2="1057" class="weekend"></line><line x1="338.2" y1="1026" x2="350.7" y2="1064" class="weekday"></line><line x1="320.4" y1="1031" x2="332.3" y2="1070" class="weekday"></line><line x1="302.6" y1="1037" x2="313.9" y2="1075" class="weekday"></line><line x1="284.8" y1="1042" x2="295.3" y2="1080" class="weekday"></line><line x1="266.8" y1="1047" x2="276.7" y2="1085" class="weekday"></line><line x1="245.3" y1="1036" x2="257.9" y2="1090" class="weekend"></line><line x1="227.4" y1="1040" x2="239.1" y2="1094" class="weekend"></line><line x1="212.4" y1="1059" x2="220.3" y2="1098" class="weekday"></line><line x1="194.1" y1="1062" x2="201.3" y2="1102" class="weekday"></line><line x1="175.8" y1="1066" x2="182.3" y2="1105" class="weekday"></line><line x1="157.5" y1="1068" x2="163.3" y2="1108" class="weekday"></line><line x1="139.0" y1="1071" x2="144.2" y2="1111" class="weekday"></line><line x1="118.9" y1="1058" x2="125.1" y2="1113" class="weekend"></line><line x1="100.7" y1="1060" x2="105.9" y2="1115" class="weekend"></line><line x1="83.58" y1="1077" x2="86.67" y2="1117" class="weekday"></line><line x1="65.03" y1="1078" x2="67.44" y2="1118" class="weekday"></line><line x1="46.46" y1="1079" x2="48.18" y2="1119" class="weekday"></line><line x1="23.75" y1="919.7" x2="28.92" y2="1120" class="first"></line><line x1="9.296" y1="1080" x2="9.640" y2="1120" class="weekday"></line><line x1="-9.166" y1="1065" x2="-9.640" y2="1120" class="weekend"></line><line x1="-27.50" y1="1065" x2="-28.92" y2="1120" class="weekend"></line><line x1="-46.46" y1="1079" x2="-48.18" y2="1119" class="weekday"></line><line x1="-65.03" y1="1078" x2="-67.44" y2="1118" class="weekday"></line><line x1="-83.58" y1="1077" x2="-86.67" y2="1117" class="weekday"></line><line x1="-102.1" y1="1075" x2="-105.9" y2="1115" class="weekday"></line><line x1="-120.6" y1="1073" x2="-125.1" y2="1113" class="weekday"></line><line x1="-137.1" y1="1056" x2="-144.2" y2="1111" class="weekend"></line><line x1="-155.3" y1="1054" x2="-163.3" y2="1108" class="weekend"></line><line x1="-175.8" y1="1066" x2="-182.3" y2="1105" class="weekday"></line><line x1="-194.1" y1="1062" x2="-201.3" y2="1102" class="weekday"></line><line x1="-212.4" y1="1059" x2="-220.3" y2="1098" class="weekday"></line><line x1="-230.6" y1="1055" x2="-239.1" y2="1094" class="weekday"></line><line x1="-248.7" y1="1051" x2="-257.9" y2="1090" class="weekday"></line><line x1="-263.1" y1="1032" x2="-276.7" y2="1085" class="weekend"></line><line x1="-280.8" y1="1027" x2="-295.3" y2="1080" class="weekend"></line><line x1="-302.6" y1="1037" x2="-313.9" y2="1075" class="weekday"></line><line x1="-320.4" y1="1031" x2="-332.3" y2="1070" class="weekday"></line><line x1="-338.2" y1="1026" x2="-350.7" y2="1064" class="weekday"></line><line x1="-355.8" y1="1020" x2="-368.9" y2="1057" class="weekday"></line><line x1="-373.3" y1="1013" x2="-387.1" y2="1051" class="weekday"></line><line x1="-385.2" y1="992.9" x2="-405.1" y2="1044" class="weekend"></line><line x1="-402.3" y1="986.1" x2="-423.0" y2="1037" class="weekend"></line><line x1="-425.1" y1="992.8" x2="-440.8" y2="1030" class="weekday"></line><line x1="-442.1" y1="985.4" x2="-458.5" y2="1022" class="weekday"></line><line x1="-459.0" y1="977.6" x2="-476.0" y2="1014" class="weekday"></line><line x1="-475.8" y1="969.6" x2="-493.4" y2="1005" class="weekday"></line><line x1="-492.4" y1="961.2" x2="-510.6" y2="996.8" class="weekday"></line><line x1="-501.8" y1="939.4" x2="-527.7" y2="987.9" class="weekend"></line><line x1="-447.4" y1="803.9" x2="-544.6" y2="978.7" class="first"></line><line x1="-541.3" y1="934.5" x2="-561.4" y2="969.1" class="weekday"></line><line x1="-557.3" y1="925.1" x2="-578.0" y2="959.3" class="weekday"></line><line x1="-573.2" y1="915.3" x2="-594.4" y2="949.2" class="weekday"></line><line x1="-588.9" y1="905.3" x2="-610.7" y2="938.9" class="weekday"></line><line x1="-604.4" y1="895.1" x2="-626.7" y2="928.2" class="weekday"></line><line x1="-611.1" y1="872.3" x2="-642.6" y2="917.3" class="weekend"></line><line x1="-626.0" y1="861.6" x2="-658.3" y2="906.1" class="weekend"></line><line x1="-649.8" y1="862.7" x2="-673.8" y2="894.6" class="weekday"></line><line x1="-664.5" y1="851.4" x2="-689.1" y2="882.9" class="weekday"></line><line x1="-679.1" y1="839.8" x2="-704.2" y2="870.9" class="weekday"></line><line x1="-693.4" y1="828.0" x2="-719.1" y2="858.7" class="weekday"></line><line x1="-707.6" y1="815.9" x2="-733.8" y2="846.2" class="weekday"></line><line x1="-711.5" y1="792.5" x2="-748.2" y2="833.4" class="weekend"></line><line x1="-725.0" y1="780.1" x2="-762.5" y2="820.4" class="weekend"></line><line x1="-748.7" y1="778.3" x2="-776.5" y2="807.1" class="weekday"></line><line x1="-762.0" y1="765.3" x2="-790.3" y2="793.7" class="weekday"></line><line x1="-775.1" y1="752.1" x2="-803.8" y2="779.9" class="weekday"></line><line x1="-787.9" y1="738.6" x2="-817.1" y2="766.0" class="weekday"></line><line x1="-800.5" y1="725.0" x2="-830.2" y2="751.8" class="weekday"></line><line x1="-801.6" y1="701.2" x2="-843.0" y2="737.4" class="weekend"></line><line x1="-813.5" y1="687.3" x2="-855.6" y2="722.8" class="weekend"></line><line x1="-836.9" y1="682.7" x2="-867.9" y2="708.0" class="weekday"></line><line x1="-848.5" y1="668.2" x2="-879.9" y2="692.9" class="weekday"></line><line x1="-859.9" y1="653.5" x2="-891.7" y2="677.7" class="weekday"></line><line x1="-871.0" y1="638.6" x2="-903.3" y2="662.2" class="weekday"></line><line x1="-881.9" y1="623.5" x2="-914.5" y2="646.6" class="weekday"></line><line x1="-880.1" y1="599.8" x2="-925.5" y2="630.7" class="weekend"></line><line x1="-890.3" y1="584.5" x2="-936.2" y2="614.7" class="weekend"></line><line x1="-912.9" y1="577.1" x2="-946.7" y2="598.5" class="weekday"></line><line x1="-922.7" y1="561.3" x2="-956.8" y2="582.1" class="weekday"></line><line x1="-794.1" y1="464.6" x2="-966.7" y2="565.6" class="first"></line><line x1="-941.4" y1="529.2" x2="-976.3" y2="548.8" class="weekday"></line><line x1="-950.4" y1="512.9" x2="-985.6" y2="531.9" class="weekday"></line><line x1="-945.8" y1="489.6" x2="-994.6" y2="514.9" class="weekend"></line><line x1="-954.1" y1="473.3" x2="-1003" y2="497.7" class="weekend"></line><line x1="-975.6" y1="463.2" x2="-1012" y2="480.4" class="weekday"></line><line x1="-983.5" y1="446.3" x2="-1020" y2="462.9" class="weekday"></line><line x1="-991.0" y1="429.3" x2="-1028" y2="445.2" class="weekday"></line><line x1="-998.2" y1="412.2" x2="-1035" y2="427.5" class="weekday"></line><line x1="-1005" y1="395.0" x2="-1042" y2="409.6" class="weekday"></line><line x1="-997.8" y1="372.4" x2="-1049" y2="391.6" class="weekend"></line><line x1="-1004" y1="355.1" x2="-1056" y2="373.5" class="weekend"></line><line x1="-1024" y1="342.6" x2="-1062" y2="355.3" class="weekday"></line><line x1="-1030" y1="324.9" x2="-1068" y2="336.9" class="weekday"></line><line x1="-1035" y1="307.1" x2="-1074" y2="318.5" class="weekday"></line><line x1="-1041" y1="289.2" x2="-1079" y2="300.0" class="weekday"></line><line x1="-1045" y1="271.3" x2="-1084" y2="281.3" class="weekday"></line><line x1="-1035" y1="249.7" x2="-1089" y2="262.6" class="weekend"></line><line x1="-1039" y1="231.9" x2="-1093" y2="243.9" class="weekend"></line><line x1="-1058" y1="217.0" x2="-1097" y2="225.0" class="weekday"></line><line x1="-1062" y1="198.7" x2="-1101" y2="206.1" class="weekday"></line><line x1="-1065" y1="180.4" x2="-1104" y2="187.1" class="weekday"></line><line x1="-1068" y1="162.1" x2="-1107" y2="168.1" class="weekday"></line><line x1="-1070" y1="143.7" x2="-1110" y2="149.0" class="weekday"></line><line x1="-1058" y1="123.5" x2="-1112" y2="129.8" class="weekend"></line><line x1="-1060" y1="105.2" x2="-1115" y2="110.7" class="weekend"></line><line x1="-1076" y1="88.21" x2="-1116" y2="91.48" class="weekday"></line><line x1="-1078" y1="69.67" x2="-1118" y2="72.25" class="weekday"></line><line x1="-1079" y1="51.11" x2="-1119" y2="53.00" class="weekday"></line><line x1="-1080" y1="32.53" x2="-1119" y2="33.73" class="weekday"></line><line x1="-919.9" y1="11.88" x2="-1120" y2="14.46" class="first"></line><line x1="-1065" y1="-4.583" x2="-1120" y2="-4.820" class="weekend"></line><line x1="-1065" y1="-22.91" x2="-1120" y2="-24.10" class="weekend"></line><line x1="-1079" y1="-41.82" x2="-1119" y2="-43.37" class="weekday"></line><line x1="-1078" y1="-60.39" x2="-1118" y2="-62.63" class="weekday"></line><line x1="-1077" y1="-78.94" x2="-1117" y2="-81.87" class="weekday"></line><line x1="-1076" y1="-97.47" x2="-1115" y2="-101.1" class="weekday"></line><line x1="-1074" y1="-116.0" x2="-1114" y2="-120.3" class="weekday"></line><line x1="-1057" y1="-132.6" x2="-1111" y2="-139.4" class="weekend"></line><line x1="-1054" y1="-150.7" x2="-1109" y2="-158.5" class="weekend"></line><line x1="-1066" y1="-171.2" x2="-1106" y2="-177.6" class="weekday"></line><line x1="-1063" y1="-189.6" x2="-1103" y2="-196.6" class="weekday"></line><line x1="-1060" y1="-207.8" x2="-1099" y2="-215.5" class="weekday"></line><line x1="-1056" y1="-226.1" x2="-1095" y2="-234.4" class="weekday"></line><line x1="-1052" y1="-244.2" x2="-1091" y2="-253.2" class="weekday"></line><line x1="-1033" y1="-258.6" x2="-1086" y2="-272.0" class="weekend"></line><line x1="-1029" y1="-276.4" x2="-1082" y2="-290.7" class="weekend"></line><line x1="-1038" y1="-298.2" x2="-1076" y2="-309.2" class="weekday"></line><line x1="-1033" y1="-316.0" x2="-1071" y2="-327.7" class="weekday"></line><line x1="-1027" y1="-333.7" x2="-1065" y2="-346.1" class="weekday"></line><line x1="-1021" y1="-351.4" x2="-1059" y2="-364.4" class="weekday"></line><line x1="-1015" y1="-368.9" x2="-1053" y2="-382.6" class="weekday"></line><line x1="-994.5" y1="-380.9" x2="-1046" y2="-400.6" class="weekend"></line><line x1="-987.8" y1="-398.0" x2="-1039" y2="-418.6" class="weekend"></line><line x1="-994.6" y1="-420.8" x2="-1031" y2="-436.4" class="weekday"></line><line x1="-987.3" y1="-437.9" x2="-1024" y2="-454.1" class="weekday"></line><line x1="-979.6" y1="-454.8" x2="-1016" y2="-471.6" class="weekday"></line><line x1="-971.6" y1="-471.6" x2="-1008" y2="-489.0" class="weekday"></line><line x1="-963.3" y1="-488.2" x2="-999.0" y2="-506.3" class="weekday"></line><line x1="-941.5" y1="-497.7" x2="-990.2" y2="-523.4" class="weekend"></line><line x1="-932.8" y1="-513.9" x2="-981.0" y2="-540.4" class="weekend"></line><line x1="-798.1" y1="-457.7" x2="-971.6" y2="-557.2" class="first"></line><line x1="-927.5" y1="-553.4" x2="-961.8" y2="-573.9" class="weekday"></line><line x1="-917.8" y1="-569.2" x2="-951.8" y2="-590.3" class="weekday"></line><line x1="-907.9" y1="-585.0" x2="-941.5" y2="-606.6" class="weekday"></line><line x1="-897.7" y1="-600.5" x2="-930.9" y2="-622.7" class="weekday"></line><line x1="-874.9" y1="-607.3" x2="-920.1" y2="-638.7" class="weekend"></line><line x1="-864.3" y1="-622.3" x2="-908.9" y2="-654.4" class="weekend"></line><line x1="-865.5" y1="-646.0" x2="-897.5" y2="-670.0" class="weekday"></line><line x1="-854.2" y1="-660.8" x2="-885.9" y2="-685.3" class="weekday"></line><line x1="-842.7" y1="-675.4" x2="-873.9" y2="-700.5" class="weekday"></line><line x1="-831.0" y1="-689.8" x2="-861.7" y2="-715.4" class="weekday"></line><line x1="-819.0" y1="-704.1" x2="-849.3" y2="-730.1" class="weekday"></line><line x1="-795.5" y1="-708.1" x2="-836.6" y2="-744.6" class="weekend"></line><line x1="-783.2" y1="-721.7" x2="-823.7" y2="-758.9" class="weekend"></line><line x1="-781.5" y1="-745.4" x2="-810.5" y2="-773.0" class="weekday"></line><line x1="-768.6" y1="-758.7" x2="-797.1" y2="-786.8" class="weekday"></line><line x1="-755.4" y1="-771.8" x2="-783.4" y2="-800.4" class="weekday"></line><line x1="-742.0" y1="-784.7" x2="-769.5" y2="-813.8" class="weekday"></line><line x1="-728.4" y1="-797.4" x2="-755.4" y2="-826.9" class="weekday"></line><line x1="-704.6" y1="-798.6" x2="-741.0" y2="-839.8" class="weekend"></line><line x1="-690.8" y1="-810.6" x2="-726.5" y2="-852.4" class="weekend"></line><line x1="-686.3" y1="-833.9" x2="-711.7" y2="-864.8" class="weekday"></line><line x1="-671.8" y1="-845.6" x2="-696.7" y2="-876.9" class="weekday"></line><line x1="-657.2" y1="-857.1" x2="-681.5" y2="-888.8" class="weekday"></line><line x1="-642.3" y1="-868.2" x2="-666.1" y2="-900.4" class="weekday"></line><line x1="-627.3" y1="-879.2" x2="-650.5" y2="-911.7" class="weekday"></line><line x1="-603.5" y1="-877.5" x2="-634.7" y2="-922.8" class="weekend"></line><line x1="-588.3" y1="-887.7" x2="-618.7" y2="-933.6" class="weekend"></line><line x1="-581.0" y1="-910.4" x2="-602.6" y2="-944.1" class="weekday"></line><line x1="-565.3" y1="-920.2" x2="-586.2" y2="-954.3" class="weekday"></line><line x1="-468.0" y1="-792.1" x2="-569.7" y2="-964.3" class="first"></line><line x1="-533.3" y1="-939.2" x2="-553.0" y2="-973.9" class="weekday"></line><line x1="-517.0" y1="-948.2" x2="-536.2" y2="-983.3" class="weekday"></line><line x1="-493.7" y1="-943.7" x2="-519.2" y2="-992.4" class="weekend"></line><line x1="-477.4" y1="-952.0" x2="-502.0" y2="-1001" class="weekend"></line><line x1="-467.4" y1="-973.6" x2="-484.7" y2="-1010" class="weekday"></line><line x1="-450.6" y1="-981.5" x2="-467.3" y2="-1018" class="weekday"></line><line x1="-433.6" y1="-989.1" x2="-449.7" y2="-1026" class="weekday"></line><line x1="-416.5" y1="-996.5" x2="-431.9" y2="-1033" class="weekday"></line><line x1="-399.3" y1="-1003" x2="-414.1" y2="-1041" class="weekday"></line><line x1="-376.7" y1="-996.2" x2="-396.1" y2="-1048" class="weekend"></line><line x1="-359.5" y1="-1003" x2="-378.0" y2="-1054" class="weekend"></line><line x1="-347.0" y1="-1023" x2="-359.8" y2="-1061" class="weekday"></line><line x1="-329.3" y1="-1029" x2="-341.5" y2="-1067" class="weekday"></line><line x1="-311.6" y1="-1034" x2="-323.1" y2="-1072" class="weekday"></line><line x1="-293.7" y1="-1039" x2="-304.6" y2="-1078" class="weekday"></line><line x1="-275.8" y1="-1044" x2="-286.0" y2="-1083" class="weekday"></line><line x1="-254.2" y1="-1034" x2="-267.3" y2="-1088" class="weekend"></line><line x1="-236.3" y1="-1038" x2="-248.6" y2="-1092" class="weekend"></line><line x1="-221.5" y1="-1057" x2="-229.7" y2="-1096" class="weekday"></line><line x1="-203.3" y1="-1061" x2="-210.8" y2="-1100" class="weekday"></line><line x1="-185.0" y1="-1064" x2="-191.8" y2="-1103" class="weekday"></line><line x1="-166.7" y1="-1067" x2="-172.8" y2="-1107" class="weekday"></line><line x1="-148.3" y1="-1070" x2="-153.8" y2="-1109" class="weekday"></line><line x1="-128.0" y1="-1057" x2="-134.6" y2="-1112" class="weekend"></line><line x1="-109.8" y1="-1059" x2="-115.5" y2="-1114" class="weekend"></line><line x1="-92.84" y1="-1076" x2="-96.28" y2="-1116" class="weekday"></line><line x1="-74.31" y1="-1077" x2="-77.06" y2="-1117" class="weekday"></line><line x1="-55.75" y1="-1079" x2="-57.81" y2="-1119" class="weekday"></line><line x1="-37.18" y1="-1079" x2="-38.55" y2="-1119" class="weekday"></line><line x1="-18.59" y1="-1080" x2="-19.28" y2="-1120" class="weekday"></line></g><text x="506.00000000000006" y="0" class="label year">2021</text>
<g class="needle">
	<path d="
M 12 160
L -12 160
L 0, -950
Z
M 30 0
A 30,30 0 1 1 -30,00
A 30,30 0 1 1 30,00" transform="rotate( 240.65753424657535 0 0 )"></path>
</g></svg>